<svg xmlns="http://www.w3.org/2000/svg" width="118" height="118" viewBox="0 0 118 118" fill="none">
<path d="M118 59C118 26.4152 91.5848 0 59 0C26.4152 0 0 26.4152 0 59C0 91.5848 26.4152 118 59 118C91.5848 118 118 91.5848 118 59Z" fill="#5E48DB" fill-opacity="0.2"/>
<path d="M29.8886 34.7015C30.0909 32.742 31.3206 31.3339 33.1024 30.9546C37.193 30.0838 45.0853 29 59 29C72.915 29 80.807 30.0838 84.898 30.9546C86.679 31.3339 87.909 32.742 88.111 34.7015C88.523 38.6866 89 46.0941 89 59C89 71.906 88.523 79.313 88.111 83.299C87.909 85.258 86.679 86.666 84.898 87.045C80.807 87.916 72.915 89 59 89C45.0853 89 37.193 87.916 33.1024 87.045C31.3206 86.666 30.0909 85.258 29.8886 83.299C29.477 79.313 29 71.906 29 59C29 46.0941 29.477 38.6866 29.8886 34.7015Z" fill="#F8AB11" stroke="black" stroke-width="4"/>
<path fill-rule="evenodd" clip-rule="evenodd" d="M90.69 43H27.3101C27.4797 39.2185 27.696 36.461 27.899 34.496C28.1827 31.7484 29.9841 29.5736 32.6858 28.9984C36.9502 28.0906 44.9889 27 58.9998 27C73.011 27 81.049 28.0906 85.314 28.9984C88.015 29.5736 89.817 31.7484 90.101 34.496C90.304 36.461 90.52 39.2185 90.69 43Z" fill="black"/>
<path d="M38.1997 55.8001C38.1997 54.0328 39.6324 52.6001 41.3997 52.6001H44.5997C46.367 52.6001 47.7997 54.0328 47.7997 55.8001V59.0001C47.7997 60.767 46.367 62.2 44.5997 62.2H41.3997C39.6324 62.2 38.1997 60.767 38.1997 59.0001V55.8001Z" fill="black"/>
<path d="M38.1997 71.8001C38.1997 70.0331 39.6324 68.6001 41.3997 68.6001H44.5997C46.367 68.6001 47.7997 70.0331 47.7997 71.8001V75.0001C47.7997 76.7671 46.367 78.2001 44.5997 78.2001H41.3997C39.6324 78.2001 38.1997 76.7671 38.1997 75.0001V71.8001Z" fill="black"/>
<path d="M54.2002 55.8001C54.2002 54.0328 55.6329 52.6001 57.4002 52.6001H60.6C62.368 52.6001 63.8 54.0328 63.8 55.8001V59.0001C63.8 60.767 62.368 62.2 60.6 62.2H57.4002C55.6329 62.2 54.2002 60.767 54.2002 59.0001V55.8001Z" fill="black"/>
<path d="M54.2002 71.8001C54.2002 70.0331 55.6329 68.6001 57.4002 68.6001H60.6C62.368 68.6001 63.8 70.0331 63.8 71.8001V75.0001C63.8 76.7671 62.368 78.2001 60.6 78.2001H57.4002C55.6329 78.2001 54.2002 76.7671 54.2002 75.0001V71.8001Z" fill="black"/>
<path d="M70.2 55.8001C70.2 54.0328 71.633 52.6001 73.4 52.6001H76.6C78.368 52.6001 79.8 54.0328 79.8 55.8001V59.0001C79.8 60.767 78.368 62.2 76.6 62.2H73.4C71.633 62.2 70.2 60.767 70.2 59.0001V55.8001Z" fill="black"/>
</svg>