<svg xmlns="http://www.w3.org/2000/svg" width="320" height="178" viewBox="0 0 320 178" fill="none">
<g filter="url(#filter0_ddddd_86_2442)">
<g clip-path="url(#clip0_86_2442)">
<rect x="118" y="13" width="194.441" height="91" rx="17.6816" fill="black"/>
<path d="M241 79.8022L251.758 95.4048C278.766 134.573 332.412 144.432 371.58 117.424C410.748 90.4171 420.607 36.7711 393.599 -2.3973L382.841 -17.9998L241 79.8022Z" fill="white" fill-opacity="0.2"/>
<rect x="134" y="29" width="45.875" height="59" rx="22.9375" fill="#F9B732"/>
<path d="M154 76V76.5H154.5H159.803H160.303V76V72.9707C161.256 72.7797 162.147 72.4944 162.975 72.113C164.659 71.3435 165.988 70.2662 166.942 68.8753C167.901 67.477 168.375 65.8594 168.375 64.0413C168.375 61.9762 167.793 60.2654 166.586 58.9612C165.404 57.6701 163.515 56.6908 160.992 55.9811L160.99 55.9806L156.038 54.6095L156.037 54.6093C154.815 54.2738 153.986 53.8912 153.495 53.4884C153.02 53.0874 152.817 52.6501 152.817 52.1589C152.817 51.6866 152.972 51.2679 153.3 50.8853C153.654 50.4749 154.134 50.1442 154.757 49.9027C155.389 49.6629 156.102 49.5501 156.903 49.5738L156.904 49.5738C157.737 49.5974 158.478 49.7736 159.136 50.0946L159.136 50.0947L159.145 50.0991C159.817 50.41 160.372 50.8442 160.816 51.4034L160.816 51.4034L160.819 51.4073C161.261 51.9531 161.567 52.5926 161.733 53.3345L161.837 53.7997L162.307 53.7178L167.766 52.7657L168.3 52.6725L168.164 52.1474C167.707 50.3872 166.969 48.8787 165.942 47.6345C164.929 46.3778 163.662 45.422 162.148 44.769C161.563 44.512 160.948 44.3035 160.303 44.1429V41V40.5H159.803H154.5H154V41V43.9955C153.108 44.1672 152.277 44.4251 151.508 44.7711C149.949 45.4659 148.721 46.4702 147.845 47.7879L147.845 47.7879L147.843 47.791C146.977 49.1146 146.553 50.6663 146.553 52.4255C146.553 54.3086 147.084 55.9159 148.171 57.2122C149.252 58.5017 150.85 59.4424 152.913 60.0641C152.913 60.0641 152.913 60.0641 152.913 60.0642L159.85 62.1575C159.85 62.1577 159.851 62.1579 159.852 62.1581C160.706 62.4243 161.27 62.7517 161.603 63.1072L161.608 63.1126L161.613 63.1179C161.938 63.4456 162.111 63.8661 162.111 64.4222C162.111 65.2144 161.735 65.9048 160.865 66.5052L160.862 66.5071C160.003 67.1078 158.895 67.426 157.503 67.426C156.046 67.426 154.812 67.0136 153.777 66.2008C152.755 65.3879 152.078 64.296 151.751 62.899L151.646 62.4494L151.189 62.5187L145.925 63.3185L145.432 63.3934L145.505 63.8867C145.789 65.7877 146.455 67.4536 147.509 68.8718L147.511 68.8737C148.564 70.2758 149.923 71.3616 151.58 72.1309L151.583 72.1322C152.344 72.4797 153.151 72.7463 154 72.9331V76Z" fill="#5E48DB" stroke="black"/>
<path d="M205.471 45.6938L202.092 37.0299H203.527L206.993 45.6938H205.471ZM198.552 45.6938L202.005 37.0299H203.453L200.074 45.6938H198.552ZM200.173 43.565V42.2901H205.359V43.565H200.173ZM209.48 45.6938L211.894 39.5053H213.329L210.78 45.6938H209.48ZM209.381 45.6938L206.819 39.5053H208.242L210.668 45.6938H209.381ZM217.777 45.6938L217.715 44.5304V42.5129C217.715 42.0921 217.669 41.7414 217.579 41.4609C217.488 41.1803 217.344 40.9658 217.145 40.8173C216.956 40.6687 216.704 40.5945 216.39 40.5945C216.102 40.5945 215.846 40.6564 215.623 40.7801C215.4 40.9039 215.215 41.0937 215.066 41.3495L213.804 40.9039C213.944 40.6316 214.125 40.3758 214.348 40.1365C214.571 39.8972 214.852 39.7075 215.19 39.5672C215.536 39.4269 215.945 39.3568 216.415 39.3568C217.018 39.3568 217.517 39.4682 217.913 39.691C218.317 39.9137 218.618 40.2438 218.816 40.6811C219.014 41.1184 219.113 41.6589 219.113 42.3025L219.076 45.6938H217.777ZM216.019 45.8424C215.277 45.8424 214.699 45.6773 214.286 45.3473C213.882 45.0172 213.68 44.551 213.68 43.9487C213.68 43.3051 213.894 42.8141 214.324 42.4758C214.761 42.1375 215.367 41.9683 216.143 41.9683H217.801V43.0328H216.589C216.036 43.0328 215.648 43.1112 215.425 43.2679C215.202 43.4165 215.091 43.631 215.091 43.9115C215.091 44.1508 215.186 44.3406 215.376 44.4809C215.574 44.6129 215.846 44.6789 216.192 44.6789C216.498 44.6789 216.762 44.6088 216.985 44.4685C217.216 44.32 217.393 44.1302 217.517 43.8992C217.649 43.6599 217.715 43.4041 217.715 43.1318H218.222C218.222 43.9734 218.041 44.6377 217.678 45.1245C217.323 45.6031 216.77 45.8424 216.019 45.8424ZM220.604 45.6938L220.616 39.5053H221.99L221.978 45.6938H220.604ZM221.297 38.3295C221.074 38.3295 220.88 38.2511 220.715 38.0943C220.558 37.9293 220.48 37.7354 220.48 37.5126C220.48 37.2898 220.558 37.1 220.715 36.9432C220.88 36.7865 221.074 36.7081 221.297 36.7081C221.52 36.7081 221.71 36.7865 221.866 36.9432C222.031 37.1 222.114 37.2898 222.114 37.5126C222.114 37.7354 222.031 37.9293 221.866 38.0943C221.71 38.2511 221.52 38.3295 221.297 38.3295ZM223.611 45.6938V37.0299H224.998V45.6938H223.611ZM230.287 45.6938L230.225 44.5304V42.5129C230.225 42.0921 230.18 41.7414 230.089 41.4609C229.998 41.1803 229.854 40.9658 229.656 40.8173C229.466 40.6687 229.214 40.5945 228.901 40.5945C228.612 40.5945 228.356 40.6564 228.133 40.7801C227.91 40.9039 227.725 41.0937 227.576 41.3495L226.314 40.9039C226.454 40.6316 226.636 40.3758 226.858 40.1365C227.081 39.8972 227.362 39.7075 227.7 39.5672C228.047 39.4269 228.455 39.3568 228.925 39.3568C229.528 39.3568 230.027 39.4682 230.423 39.691C230.827 39.9137 231.128 40.2438 231.326 40.6811C231.524 41.1184 231.624 41.6589 231.624 42.3025L231.586 45.6938H230.287ZM228.529 45.8424C227.787 45.8424 227.209 45.6773 226.796 45.3473C226.392 45.0172 226.19 44.551 226.19 43.9487C226.19 43.3051 226.404 42.8141 226.834 42.4758C227.271 42.1375 227.877 41.9683 228.653 41.9683H230.312V43.0328H229.099C228.546 43.0328 228.158 43.1112 227.935 43.2679C227.712 43.4165 227.601 43.631 227.601 43.9115C227.601 44.1508 227.696 44.3406 227.886 44.4809C228.084 44.6129 228.356 44.6789 228.703 44.6789C229.008 44.6789 229.272 44.6088 229.495 44.4685C229.726 44.32 229.903 44.1302 230.027 43.8992C230.159 43.6599 230.225 43.4041 230.225 43.1318H230.732C230.732 43.9734 230.551 44.6377 230.188 45.1245C229.833 45.6031 229.28 45.8424 228.529 45.8424ZM233.027 45.6938V37.0299H234.413V44.5428L234.339 45.6938H233.027ZM236.369 45.8424C235.849 45.8424 235.4 45.7103 235.02 45.4463C234.649 45.174 234.364 44.7944 234.166 44.3076C233.968 43.8208 233.869 43.2514 233.869 42.5996C233.869 41.9395 233.968 41.3701 234.166 40.8915C234.364 40.4047 234.649 40.0293 235.02 39.7652C235.4 39.4929 235.849 39.3568 236.369 39.3568C236.93 39.3568 237.417 39.4929 237.83 39.7652C238.25 40.0293 238.576 40.4047 238.807 40.8915C239.047 41.3701 239.166 41.9395 239.166 42.5996C239.166 43.2514 239.047 43.8208 238.807 44.3076C238.576 44.7944 238.25 45.174 237.83 45.4463C237.417 45.7103 236.93 45.8424 236.369 45.8424ZM236.022 44.5799C236.353 44.5799 236.645 44.4974 236.901 44.3324C237.157 44.1591 237.359 43.9239 237.508 43.6269C237.665 43.3298 237.743 42.9874 237.743 42.5996C237.743 42.2118 237.669 41.8693 237.52 41.5723C237.38 41.2752 237.182 41.0442 236.926 40.8792C236.67 40.7141 236.373 40.6316 236.035 40.6316C235.721 40.6316 235.441 40.7141 235.193 40.8792C234.946 41.0442 234.752 41.2752 234.612 41.5723C234.479 41.8693 234.413 42.2118 234.413 42.5996C234.413 42.9874 234.479 43.3298 234.612 43.6269C234.752 43.9239 234.942 44.1591 235.181 44.3324C235.428 44.4974 235.709 44.5799 236.022 44.5799ZM240.352 45.6938V37.0299H241.738V45.6938H240.352ZM246.037 45.8424C245.435 45.8424 244.898 45.7062 244.428 45.4339C243.966 45.1534 243.599 44.7697 243.327 44.2829C243.062 43.796 242.93 43.2349 242.93 42.5996C242.93 41.9642 243.067 41.4031 243.339 40.9163C243.611 40.4295 243.983 40.0499 244.453 39.7776C244.931 39.4971 245.476 39.3568 246.087 39.3568C246.639 39.3568 247.135 39.5012 247.572 39.79C248.017 40.0705 248.372 40.479 248.636 41.0153C248.9 41.5516 249.032 42.1911 249.032 42.9338H247.634C247.634 42.3974 247.568 41.956 247.436 41.6094C247.312 41.2628 247.13 41.0071 246.891 40.842C246.66 40.6687 246.375 40.5821 246.037 40.5821C245.682 40.5821 245.377 40.6605 245.121 40.8173C244.865 40.974 244.672 41.2051 244.539 41.5104C244.407 41.8074 244.341 42.1829 244.341 42.6367C244.341 43.041 244.42 43.3876 244.577 43.6764C244.742 43.9652 244.96 44.188 245.233 44.3447C245.513 44.4933 245.823 44.5675 246.161 44.5675C246.532 44.5675 246.837 44.485 247.077 44.32C247.316 44.1467 247.502 43.928 247.634 43.664L248.909 44.2086C248.735 44.5387 248.513 44.8275 248.24 45.075C247.976 45.3225 247.659 45.5123 247.287 45.6443C246.924 45.7764 246.507 45.8424 246.037 45.8424ZM243.846 42.9338V41.8322H248.302V42.9338H243.846ZM254.045 45.6938V44.4066H256.459C256.912 44.4066 257.271 44.2952 257.535 44.0724C257.799 43.8497 257.931 43.5485 257.931 43.1689C257.931 42.7564 257.783 42.4345 257.486 42.2035C257.197 41.9642 256.789 41.8487 256.26 41.8569H254.045V40.7183L255.543 40.743C256.326 40.743 257.007 40.8338 257.585 41.0153C258.162 41.1886 258.608 41.4609 258.922 41.8322C259.235 42.2035 259.392 42.6821 259.392 43.2679C259.392 43.7795 259.276 44.2168 259.045 44.5799C258.814 44.943 258.488 45.2194 258.068 45.4092C257.647 45.599 257.148 45.6938 256.57 45.6938H254.045ZM253.339 45.6938V37.0299H254.75V45.6938H253.339ZM254.008 41.9188V40.6687H256.322C256.735 40.6687 257.057 40.5615 257.288 40.3469C257.527 40.1242 257.647 39.8189 257.647 39.431C257.647 39.035 257.511 38.7297 257.238 38.5151C256.974 38.3006 256.603 38.1975 256.124 38.2057H254.008V37.0423L256.199 37.0175C256.793 37.0175 257.304 37.1124 257.733 37.3022C258.171 37.4837 258.509 37.756 258.748 38.1191C258.988 38.4739 259.107 38.9195 259.107 39.4558C259.107 39.9096 258.967 40.3181 258.686 40.6811C258.414 41.0359 258.022 41.3165 257.511 41.5228C257.007 41.7291 256.413 41.8322 255.728 41.8322L254.008 41.9188ZM264.408 45.6938L264.346 44.5304V42.5129C264.346 42.0921 264.301 41.7414 264.21 41.4609C264.12 41.1803 263.975 40.9658 263.777 40.8173C263.587 40.6687 263.336 40.5945 263.022 40.5945C262.733 40.5945 262.478 40.6564 262.255 40.7801C262.032 40.9039 261.846 41.0937 261.698 41.3495L260.435 40.9039C260.576 40.6316 260.757 40.3758 260.98 40.1365C261.203 39.8972 261.483 39.7075 261.822 39.5672C262.168 39.4269 262.577 39.3568 263.047 39.3568C263.649 39.3568 264.148 39.4682 264.545 39.691C264.949 39.9137 265.25 40.2438 265.448 40.6811C265.646 41.1184 265.745 41.6589 265.745 42.3025L265.708 45.6938H264.408ZM262.651 45.8424C261.908 45.8424 261.331 45.6773 260.918 45.3473C260.514 45.0172 260.312 44.551 260.312 43.9487C260.312 43.3051 260.526 42.8141 260.955 42.4758C261.393 42.1375 261.999 41.9683 262.775 41.9683H264.433V43.0328H263.22C262.667 43.0328 262.28 43.1112 262.057 43.2679C261.834 43.4165 261.723 43.631 261.723 43.9115C261.723 44.1508 261.817 44.3406 262.007 44.4809C262.205 44.6129 262.478 44.6789 262.824 44.6789C263.129 44.6789 263.393 44.6088 263.616 44.4685C263.847 44.32 264.025 44.1302 264.148 43.8992C264.28 43.6599 264.346 43.4041 264.346 43.1318H264.854C264.854 43.9734 264.672 44.6377 264.309 45.1245C263.955 45.6031 263.402 45.8424 262.651 45.8424ZM267.149 45.6938V37.0299H268.535V45.6938H267.149ZM273.824 45.6938L273.762 44.5304V42.5129C273.762 42.0921 273.717 41.7414 273.626 41.4609C273.535 41.1803 273.391 40.9658 273.193 40.8173C273.003 40.6687 272.751 40.5945 272.438 40.5945C272.149 40.5945 271.893 40.6564 271.671 40.7801C271.448 40.9039 271.262 41.0937 271.114 41.3495L269.851 40.9039C269.991 40.6316 270.173 40.3758 270.396 40.1365C270.618 39.8972 270.899 39.7075 271.237 39.5672C271.584 39.4269 271.992 39.3568 272.463 39.3568C273.065 39.3568 273.564 39.4682 273.96 39.691C274.365 39.9137 274.666 40.2438 274.864 40.6811C275.062 41.1184 275.161 41.6589 275.161 42.3025L275.124 45.6938H273.824ZM272.067 45.8424C271.324 45.8424 270.746 45.6773 270.334 45.3473C269.93 45.0172 269.727 44.551 269.727 43.9487C269.727 43.3051 269.942 42.8141 270.371 42.4758C270.808 42.1375 271.415 41.9683 272.19 41.9683H273.849V43.0328H272.636C272.083 43.0328 271.695 43.1112 271.473 43.2679C271.25 43.4165 271.138 43.631 271.138 43.9115C271.138 44.1508 271.233 44.3406 271.423 44.4809C271.621 44.6129 271.893 44.6789 272.24 44.6789C272.545 44.6789 272.809 44.6088 273.032 44.4685C273.263 44.32 273.44 44.1302 273.564 43.8992C273.696 43.6599 273.762 43.4041 273.762 43.1318H274.27C274.27 43.9734 274.088 44.6377 273.725 45.1245C273.37 45.6031 272.817 45.8424 272.067 45.8424ZM276.565 45.6938V39.5053H277.864L277.951 40.644V45.6938H276.565ZM280.76 45.6938V42.5253L282.147 42.154V45.6938H280.76ZM280.76 42.5253C280.76 42.0302 280.703 41.6507 280.587 41.3866C280.48 41.1143 280.323 40.9245 280.117 40.8173C279.919 40.71 279.684 40.6564 279.411 40.6564C278.949 40.6481 278.59 40.8008 278.335 41.1143C278.079 41.4279 277.951 41.8776 277.951 42.4634H277.431C277.431 41.8116 277.526 41.2546 277.716 40.7925C277.905 40.3222 278.178 39.9674 278.533 39.7281C278.887 39.4805 279.308 39.3568 279.795 39.3568C280.546 39.3568 281.124 39.5878 281.528 40.0499C281.94 40.5037 282.147 41.2051 282.147 42.154L280.76 42.5253ZM286.447 45.8424C285.812 45.8424 285.251 45.7062 284.764 45.4339C284.277 45.1534 283.893 44.7697 283.613 44.2829C283.34 43.796 283.204 43.2349 283.204 42.5996C283.204 41.9642 283.34 41.4031 283.613 40.9163C283.893 40.4295 284.273 40.0499 284.751 39.7776C285.238 39.4971 285.795 39.3568 286.422 39.3568C287.033 39.3568 287.586 39.5053 288.081 39.8024C288.576 40.0912 288.943 40.5078 289.182 41.0524L287.895 41.5475C287.763 41.2752 287.561 41.0566 287.289 40.8915C287.016 40.7265 286.707 40.644 286.361 40.644C286.022 40.644 285.721 40.7306 285.457 40.9039C285.193 41.0689 284.987 41.3 284.838 41.597C284.69 41.8858 284.615 42.22 284.615 42.5996C284.615 42.9791 284.69 43.3174 284.838 43.6145C284.995 43.9033 285.205 44.1343 285.469 44.3076C285.742 44.4726 286.047 44.5552 286.385 44.5552C286.732 44.5552 287.041 44.4685 287.314 44.2952C287.586 44.1137 287.788 43.8703 287.92 43.565L289.207 44.0601C288.968 44.6212 288.601 45.0585 288.106 45.372C287.619 45.6856 287.066 45.8424 286.447 45.8424ZM293.043 45.8424C292.441 45.8424 291.905 45.7062 291.434 45.4339C290.972 45.1534 290.605 44.7697 290.333 44.2829C290.069 43.796 289.937 43.2349 289.937 42.5996C289.937 41.9642 290.073 41.4031 290.345 40.9163C290.618 40.4295 290.989 40.0499 291.459 39.7776C291.938 39.4971 292.482 39.3568 293.093 39.3568C293.646 39.3568 294.141 39.5012 294.578 39.79C295.024 40.0705 295.379 40.479 295.643 41.0153C295.907 41.5516 296.039 42.1911 296.039 42.9338H294.64C294.64 42.3974 294.574 41.956 294.442 41.6094C294.318 41.2628 294.137 41.0071 293.897 40.842C293.666 40.6687 293.382 40.5821 293.043 40.5821C292.689 40.5821 292.383 40.6605 292.128 40.8173C291.872 40.974 291.678 41.2051 291.546 41.5104C291.414 41.8074 291.348 42.1829 291.348 42.6367C291.348 43.041 291.426 43.3876 291.583 43.6764C291.748 43.9652 291.967 44.188 292.239 44.3447C292.519 44.4933 292.829 44.5675 293.167 44.5675C293.539 44.5675 293.844 44.485 294.083 44.32C294.322 44.1467 294.508 43.928 294.64 43.664L295.915 44.2086C295.742 44.5387 295.519 44.8275 295.247 45.075C294.983 45.3225 294.665 45.5123 294.294 45.6443C293.93 45.7764 293.514 45.8424 293.043 45.8424ZM290.853 42.9338V41.8322H295.308V42.9338H290.853Z" fill="#8E8E8E"/>
<path d="M205.329 77.7534C204.273 77.7534 203.337 77.5935 202.521 77.2735C201.705 76.9375 201.041 76.5056 200.529 75.9776C200.017 75.4496 199.673 74.8816 199.497 74.2736L201.993 73.5055C202.185 74.0335 202.545 74.4895 203.073 74.8735C203.617 75.2574 204.289 75.4574 205.089 75.4734C206.001 75.4733 206.721 75.2893 207.249 74.9213C207.793 74.5373 208.065 74.0333 208.065 73.4093C208.065 72.8653 207.833 72.4093 207.369 72.0413C206.921 71.6733 206.321 71.3933 205.569 71.2014L203.721 70.7454C203.001 70.5535 202.361 70.2735 201.801 69.9055C201.241 69.5215 200.801 69.0576 200.481 68.5136C200.161 67.9536 200.001 67.2976 200.001 66.5456C200.001 65.1376 200.457 64.0416 201.369 63.2575C202.297 62.4575 203.617 62.0574 205.329 62.0574C206.305 62.0573 207.153 62.2093 207.873 62.5133C208.593 62.8012 209.193 63.2092 209.673 63.7372C210.153 64.2492 210.505 64.8252 210.729 65.4652L208.257 66.2813C208.049 65.7373 207.681 65.2813 207.153 64.9133C206.625 64.5293 205.977 64.3373 205.209 64.3374C204.409 64.3374 203.777 64.5294 203.313 64.9135C202.865 65.2815 202.641 65.7935 202.641 66.4495C202.641 67.0095 202.817 67.4415 203.169 67.7455C203.537 68.0495 204.017 68.2814 204.609 68.4414L206.481 68.8973C207.841 69.2333 208.889 69.8092 209.625 70.6252C210.377 71.4412 210.753 72.3372 210.753 73.3132C210.753 74.1772 210.537 74.9452 210.105 75.6172C209.689 76.2732 209.081 76.7932 208.281 77.1773C207.481 77.5613 206.497 77.7533 205.329 77.7534ZM204.201 80.7774L204.201 76.8174L206.505 76.8173L206.505 80.7773L204.201 80.7774ZM204.201 63.5454L204.2 59.5854L206.504 59.5853L206.505 63.5453L204.201 63.5454ZM216.696 78.3049L216.719 62.9929L216.983 61.5049L219.407 61.5048L219.384 78.3048L216.696 78.3049ZM213.072 66.4251L213.071 63.9051C213.439 63.921 213.855 63.817 214.319 63.593C214.799 63.353 215.271 63.041 215.735 62.6569C216.199 62.2729 216.615 61.8809 216.983 61.4809L218.711 63.2808C218.151 63.8728 217.567 64.4169 216.96 64.9129C216.352 65.4089 215.72 65.7929 215.064 66.065C214.424 66.337 213.76 66.457 213.072 66.4251ZM222.671 81.0647L224.111 75.6166L226.943 75.6165L224.783 81.0646L222.671 81.0647ZM231.77 77.4163L229.057 76.1684C229.057 75.6724 229.185 75.1604 229.441 74.6324C229.697 74.0884 230.057 73.5443 230.521 73.0003C231.001 72.4563 231.561 71.9443 232.201 71.4643L235.129 69.3521C235.497 69.0961 235.833 68.8001 236.137 68.4641C236.457 68.1281 236.713 67.7761 236.905 67.4081C237.097 67.0241 237.193 66.6481 237.193 66.2801C237.193 65.8161 237.073 65.3921 236.833 65.0081C236.609 64.6241 236.281 64.3201 235.849 64.0961C235.433 63.8721 234.921 63.7601 234.313 63.7602C233.769 63.7602 233.281 63.8722 232.849 64.0962C232.433 64.3042 232.089 64.5843 231.817 64.9363C231.545 65.2883 231.353 65.6723 231.241 66.0883L228.385 65.5604C228.545 64.7924 228.881 64.0804 229.393 63.4244C229.921 62.7524 230.593 62.2163 231.409 61.8163C232.241 61.4163 233.185 61.2162 234.241 61.2162C235.425 61.2161 236.449 61.4321 237.313 61.864C238.193 62.296 238.865 62.896 239.329 63.664C239.809 64.4159 240.049 65.2799 240.049 66.2559C240.049 67.2479 239.777 68.1439 239.233 68.944C238.705 69.728 237.961 70.48 237.001 71.2001L234.313 73.1922C233.865 73.5122 233.441 73.8802 233.041 74.2962C232.657 74.6962 232.345 75.1523 232.105 75.6643C231.881 76.1763 231.77 76.7603 231.77 77.4163ZM229.058 78.3044L229.057 76.1684L231.121 75.8323L240.265 75.8319L240.266 78.3039L229.058 78.3044ZM248.481 78.5916C247.745 78.5916 246.993 78.4796 246.225 78.2557C245.472 78.0157 244.776 77.6637 244.136 77.1998C243.496 76.7198 243.008 76.1198 242.672 75.3998L245.144 74.4877C245.56 75.0797 246.048 75.5117 246.608 75.7837C247.168 76.0396 247.744 76.1676 248.336 76.1676C249.28 76.1675 250.048 75.8875 250.64 75.3275C251.232 74.7515 251.528 73.9915 251.528 73.0475C251.528 72.1355 251.24 71.3835 250.664 70.7915C250.088 70.1995 249.336 69.9035 248.408 69.9036C247.864 69.9036 247.352 70.0236 246.872 70.2636C246.408 70.5037 246.048 70.7917 245.792 71.1277L243.272 70.5758L244.208 61.5038L253.496 61.5034L253.496 64.0234L244.544 64.0237L244.208 61.5998L246.968 61.5996L245.816 70.7917L244.112 70.5758C244.304 70.2558 244.552 69.9357 244.856 69.6157C245.176 69.2797 245.56 68.9677 246.008 68.6797C246.456 68.3917 246.952 68.1596 247.496 67.9836C248.04 67.8076 248.632 67.7276 249.272 67.7435C250.232 67.7435 251.096 67.9675 251.864 68.4154C252.632 68.8634 253.24 69.4794 253.688 70.2634C254.136 71.0313 254.36 71.9193 254.36 72.9273C254.36 74.0473 254.104 75.0313 253.592 75.8794C253.096 76.7274 252.408 77.3914 251.528 77.8715C250.649 78.3515 249.633 78.5915 248.481 78.5916ZM263.076 78.591C261.764 78.591 260.596 78.2231 259.571 77.4871C258.547 76.7352 257.739 75.7112 257.147 74.4152C256.571 73.1032 256.283 71.5993 256.283 69.9033C256.283 68.2073 256.571 66.7112 257.147 65.4152C257.739 64.1032 258.539 63.0792 259.547 62.3431C260.571 61.5911 261.747 61.215 263.075 61.215C264.403 61.2149 265.579 61.5909 266.603 62.3428C267.627 63.0788 268.427 64.1028 269.003 65.4147C269.595 66.7107 269.891 68.2067 269.891 69.9027C269.891 71.5987 269.595 73.1027 269.003 74.4147C268.427 75.7108 267.627 76.7348 266.603 77.4868C265.596 78.2229 264.42 78.5909 263.076 78.591ZM263.099 76.071C263.883 76.0709 264.579 75.8069 265.187 75.2789C265.811 74.7509 266.291 74.0228 266.627 73.0948C266.979 72.1668 267.155 71.1028 267.155 69.9028C267.155 68.7028 266.979 67.6388 266.627 66.7108C266.291 65.7668 265.811 65.0309 265.187 64.5029C264.579 63.9749 263.875 63.7109 263.075 63.711C262.275 63.711 261.571 63.975 260.963 64.5031C260.355 65.0311 259.875 65.7591 259.523 66.6871C259.187 67.6151 259.019 68.6871 259.019 69.9031C259.019 71.1031 259.187 72.1671 259.523 73.0951C259.875 74.0231 260.355 74.7511 260.963 75.2791C261.587 75.807 262.299 76.071 263.099 76.071Z" fill="white"/>
</g>
</g>
<defs>
<filter id="filter0_ddddd_86_2442" x="0" y="0" width="319.44" height="178" filterUnits="userSpaceOnUse" color-interpolation-filters="sRGB">
<feFlood flood-opacity="0" result="BackgroundImageFix"/>
<feColorMatrix in="SourceAlpha" type="matrix" values="0 0 0 0 0 0 0 0 0 0 0 0 0 0 0 0 0 0 127 0" result="hardAlpha"/>
<feOffset/>
<feColorMatrix type="matrix" values="0 0 0 0 0.690196 0 0 0 0 0.658824 0 0 0 0 0.839216 0 0 0 0.1 0"/>
<feBlend mode="normal" in2="BackgroundImageFix" result="effect1_dropShadow_86_2442"/>
<feColorMatrix in="SourceAlpha" type="matrix" values="0 0 0 0 0 0 0 0 0 0 0 0 0 0 0 0 0 0 127 0" result="hardAlpha"/>
<feOffset dx="-5" dy="2"/>
<feGaussianBlur stdDeviation="6"/>
<feColorMatrix type="matrix" values="0 0 0 0 0.690196 0 0 0 0 0.658824 0 0 0 0 0.839216 0 0 0 0.1 0"/>
<feBlend mode="normal" in2="effect1_dropShadow_86_2442" result="effect2_dropShadow_86_2442"/>
<feColorMatrix in="SourceAlpha" type="matrix" values="0 0 0 0 0 0 0 0 0 0 0 0 0 0 0 0 0 0 127 0" result="hardAlpha"/>
<feOffset dx="-20" dy="10"/>
<feGaussianBlur stdDeviation="11.5"/>
<feColorMatrix type="matrix" values="0 0 0 0 0.690196 0 0 0 0 0.658824 0 0 0 0 0.839216 0 0 0 0.09 0"/>
<feBlend mode="normal" in2="effect2_dropShadow_86_2442" result="effect3_dropShadow_86_2442"/>
<feColorMatrix in="SourceAlpha" type="matrix" values="0 0 0 0 0 0 0 0 0 0 0 0 0 0 0 0 0 0 127 0" result="hardAlpha"/>
<feOffset dx="-46" dy="21"/>
<feGaussianBlur stdDeviation="15.5"/>
<feColorMatrix type="matrix" values="0 0 0 0 0.690196 0 0 0 0 0.658824 0 0 0 0 0.839216 0 0 0 0.05 0"/>
<feBlend mode="normal" in2="effect3_dropShadow_86_2442" result="effect4_dropShadow_86_2442"/>
<feColorMatrix in="SourceAlpha" type="matrix" values="0 0 0 0 0 0 0 0 0 0 0 0 0 0 0 0 0 0 127 0" result="hardAlpha"/>
<feOffset dx="-82" dy="38"/>
<feGaussianBlur stdDeviation="18"/>
<feColorMatrix type="matrix" values="0 0 0 0 0.690196 0 0 0 0 0.658824 0 0 0 0 0.839216 0 0 0 0.01 0"/>
<feBlend mode="normal" in2="effect4_dropShadow_86_2442" result="effect5_dropShadow_86_2442"/>
<feBlend mode="normal" in="SourceGraphic" in2="effect5_dropShadow_86_2442" result="shape"/>
</filter>
<clipPath id="clip0_86_2442">
<rect x="118" y="13" width="194.441" height="91" rx="17.6816" fill="white"/>
</clipPath>
</defs>
</svg>