<svg xmlns="http://www.w3.org/2000/svg" width="118" height="118" viewBox="0 0 118 118" fill="none">
<path d="M118 59C118 26.4152 91.5848 0 59 0C26.4152 0 0 26.4152 0 59C0 91.5848 26.4152 118 59 118C91.5848 118 118 91.5848 118 59Z" fill="#2DC3F5" fill-opacity="0.2"/>
<path d="M37.8503 49.9194C37.8503 49.9194 27.6459 51.4319 29.1802 61.372C30.6107 70.638 39.3634 68.734 41.6107 68.263C43.8586 67.794 37.8503 49.9194 37.8503 49.9194Z" fill="black"/>
<path d="M41.6106 68.263C42.6573 68.045 41.9142 64.052 40.8208 59.8479C37.0636 60.601 32.878 61.441 29.3248 62.158C31.1189 70.527 39.4288 68.72 41.6106 68.263Z" fill="black"/>
<path d="M43.6693 69.9769C43.6693 69.9769 45.8903 78.0519 45.2849 84.3309C44.72 90.1859 45.5434 91.1599 47.6985 90.9689C49.8535 90.7779 55.0832 89.4639 55.1806 87.3729C55.2772 85.2819 54.3409 74.5509 50.7333 68.7989C47.125 63.0459 43.6693 69.9769 43.6693 69.9769Z" fill="#F8AB11"/>
<path d="M47.1597 66.5991C45.7209 67.5781 43.6693 69.9771 43.6693 69.9771C43.6693 69.9771 45.8903 78.0521 45.2849 84.3311C44.72 90.1861 45.5434 91.1601 47.6985 90.9691C48.489 90.8991 49.6928 90.6781 50.9056 90.3231C51.8008 75.9321 48.1445 68.2251 47.1597 66.5991Z" fill="#F8AB11"/>
<path d="M68.8 30.2583C68.8 30.2583 51.8518 42.7407 46.3748 46.5183L43.1655 51.335L45.4008 65.3381L50.8613 68.0431L77.566 73.3081L76.955 70.2781L72.139 56.6992L69.701 41.2332L69.003 31.721L68.8 30.2583Z" fill="#F8AB11"/>
<path d="M72.14 56.6994L71.5 52.6448L44.4471 59.362L45.401 65.339L50.8614 68.043L77.566 73.308L76.955 70.278L72.14 56.6994Z" fill="#F8AB11"/>
<path d="M46.3738 46.5174C46.3738 46.5174 44.1098 58.4058 50.8599 68.0421C50.8599 68.0421 51.2358 68.9351 50.4094 69.4961L45.3634 70.8091C45.3634 70.8091 43.023 71.6511 41.0598 68.2641C39.0966 64.8771 35.6305 57.2656 37.7149 48.8506C37.7149 48.8506 38.2243 46.5727 40.9765 46.1475L44.6461 45.4413C44.6461 45.4413 46.2742 45.1815 46.3738 46.5174Z" fill="#DA9710"/>
<path d="M68.8 30.2575C68.8 30.2575 73.21 26.9711 75.755 27.0343C78.299 27.0974 80.835 30.5063 82.479 33.2906C84.122 36.0742 88.428 47.0056 88.823 54.3924C89.217 61.779 89.123 72.303 85.544 73.567C81.964 74.831 77.566 73.308 77.566 73.308C77.566 73.308 71.801 68.304 68.471 52.7005C65.139 37.0968 68.8 30.2575 68.8 30.2575Z" fill="black"/>
<path d="M83.009 73.9921C83.009 73.9921 87.136 68.5801 85.076 54.0022C81.831 31.0497 73.518 27.5979 73.518 27.5979C73.518 27.5979 67.348 32.3539 73.177 54.5278C77.981 72.8001 83.009 73.9921 83.009 73.9921Z" fill="#F8AB11"/>
<path d="M71.23 45.1958C71.623 47.8977 72.246 50.9899 73.176 54.5278C73.642 56.2978 74.109 57.9067 74.574 59.3704C77.134 58.4666 81.278 56.2066 79.525 50.5044C77.901 45.2212 73.639 44.9081 71.23 45.1958Z" fill="black"/>
<path d="M73.177 54.5274C73.642 56.2975 74.109 57.9064 74.575 59.3701C77.099 58.4786 81.163 56.2681 79.594 50.7385L72.636 52.3796C72.804 53.077 72.983 53.7921 73.177 54.5274Z" fill="black"/>
<path d="M50.8612 68.0429C50.8576 68.0369 50.8534 68.0309 50.8492 68.0249C50.8534 68.0319 50.8569 68.0369 50.8612 68.0429Z" fill="#F8AB11"/>
<path d="M50.8465 68.021C50.8444 68.018 50.8408 68.012 50.8379 68.009C50.8408 68.013 50.8437 68.017 50.8465 68.021Z" fill="#F8AB11"/>
<path d="M50.8343 68.0039C50.8315 67.9999 50.8286 67.9949 50.8257 67.9919C50.8286 67.9959 50.8315 67.9999 50.8343 68.0039Z" fill="#F8AB11"/>
</svg>