<svg xmlns="http://www.w3.org/2000/svg" width="152" height="159" viewBox="0 0 152 159" fill="none">
<mask id="path-1-inside-1_86_2460" fill="white">
<path d="M105.288 59.0516C96.3231 41.8155 75.0832 35.1102 57.8471 44.0748C40.6105 53.0396 33.9034 74.4199 42.9277 91.6254C47.4088 100.169 54.9131 106.107 63.4425 108.812C70.0823 110.918 76.085 114.661 80.8009 119.787L88.1581 127.786L108.616 117.145L106.415 107.091C104.893 100.14 105.333 92.9241 107.533 86.1569C110.346 77.5004 109.82 67.7646 105.288 59.0516Z"/>
</mask>
<path d="M105.288 59.0516C96.3231 41.8155 75.0832 35.1102 57.8471 44.0748C40.6105 53.0396 33.9034 74.4199 42.9277 91.6254C47.4088 100.169 54.9131 106.107 63.4425 108.812C70.0823 110.918 76.085 114.661 80.8009 119.787L88.1581 127.786L108.616 117.145L106.415 107.091C104.893 100.14 105.333 92.9241 107.533 86.1569C110.346 77.5004 109.82 67.7646 105.288 59.0516Z" fill="#F8AB11"/>
<path d="M57.8471 44.0748L59.2314 46.7364L59.2314 46.7364L57.8471 44.0748ZM42.9277 91.6254L45.5845 90.2319L45.5845 90.2319L42.9277 91.6254ZM63.4425 108.812L62.5356 111.672L62.5356 111.672L63.4425 108.812ZM80.8009 119.787L83.0088 117.756L83.0088 117.756L80.8009 119.787ZM88.1581 127.786L89.5423 130.447L87.5049 131.507L85.9501 129.817L88.1581 127.786ZM108.616 117.145L111.546 116.504L112.038 118.747L110 119.807L108.616 117.145ZM106.415 107.091L103.484 107.732L103.484 107.732L106.415 107.091ZM107.533 86.1569L110.386 87.0842L110.386 87.0843L107.533 86.1569ZM102.626 60.4358C94.4261 44.6697 74.9976 38.5362 59.2314 46.7364L56.4628 41.4133C75.1689 31.6841 98.2201 38.9612 107.949 57.6673L102.626 60.4358ZM59.2314 46.7364C43.4685 54.9346 37.3315 74.497 45.5845 90.2319L40.271 93.0188C30.4754 74.3428 37.7524 51.1446 56.4629 41.4133L59.2314 46.7364ZM45.5845 90.2319C49.6835 98.047 56.5429 103.477 64.3494 105.953L62.5356 111.672C53.2833 108.738 45.1341 102.291 40.271 93.0188L45.5845 90.2319ZM64.3493 105.953C71.4682 108.21 77.9252 112.23 83.0088 117.756L78.5929 121.818C74.2447 117.092 68.6965 113.626 62.5356 111.672L64.3493 105.953ZM83.0088 117.756L90.366 125.755L85.9501 129.817L78.5929 121.818L83.0088 117.756ZM86.7738 125.124L107.232 114.484L110 119.807L89.5423 130.447L86.7738 125.124ZM105.685 117.787L103.484 107.732L109.345 106.449L111.546 116.504L105.685 117.787ZM103.484 107.732C101.843 100.237 102.323 92.4799 104.68 85.2296L110.386 87.0843C108.344 93.3684 107.943 100.042 109.345 106.449L103.484 107.732ZM104.68 85.2297C107.255 77.3066 106.772 68.4063 102.626 60.4358L107.949 57.6673C112.867 67.1229 113.438 77.6943 110.386 87.0842L104.68 85.2297Z" fill="black" mask="url(#path-1-inside-1_86_2460)"/>
<path d="M92.3919 133.278L92.4005 133.292L92.4088 133.306C93.4866 135.102 96.0813 135.823 98.2978 134.67L108.272 129.482C110.489 128.33 111.388 125.791 110.536 123.877L110.526 123.855L110.517 123.833L106.716 114.501L87.0962 124.865L92.3919 133.278Z" fill="#59595B" stroke="black" stroke-width="3"/>
<path d="M106.309 119.136C101.355 121.976 96.1461 124.369 91.197 127.216C90.7574 127.469 91.119 128.082 91.5672 127.867C96.7165 125.394 101.638 122.451 106.784 119.971C107.362 119.693 106.872 118.813 106.309 119.136Z" fill="#808183"/>
<path d="M107.309 121.136C102.355 123.976 97.1461 126.369 92.197 129.216C91.7575 129.469 92.119 130.082 92.5672 129.867C97.7165 127.394 102.638 124.451 107.784 121.971C108.362 121.693 107.872 120.813 107.309 121.136Z" fill="#808183"/>
<path d="M52.1378 26.8822C53.1838 28.8932 55.8751 36.6796 54.5559 37.3657C53.2367 38.0518 48.407 31.3777 47.361 29.3667C46.315 27.3555 46.5363 25.1691 47.8554 24.4829C49.1746 23.7968 51.0918 24.871 52.1378 26.8822Z" fill="#FEB455"/>
<path d="M87.674 22.5078C86.8303 24.6119 84.9157 32.6246 86.296 33.178C87.676 33.7314 91.8277 26.6158 92.6716 24.5119C93.5152 22.4076 93.0805 20.2535 91.7005 19.7001C90.3203 19.1468 88.5176 20.4038 87.674 22.5078Z" fill="#FEB455"/>
<path d="M116.054 48.7397C114.191 50.0308 106.806 53.6816 105.959 52.4594C105.112 51.2372 111.124 45.6051 112.988 44.314C114.851 43.023 117.048 42.9671 117.895 44.1891C118.741 45.4113 117.918 47.4488 116.054 48.7397Z" fill="#FEB455"/>
<path d="M24.8583 52.1278C27.0865 52.5442 34.8759 55.226 34.6028 56.6876C34.3297 58.1491 26.0977 57.8369 23.8692 57.4203C21.641 57.004 20.0559 55.4815 20.329 54.0201C20.6021 52.5585 22.6299 51.7112 24.8583 52.1278Z" fill="#FEB455"/>
<path d="M25.0868 89.4863C27.2137 88.7019 34.4431 84.7515 33.9285 83.3565C33.4142 81.9616 25.3509 83.65 23.2241 84.4344C21.0969 85.2186 19.7898 86.9852 20.3042 88.3803C20.8187 89.7753 22.9599 90.2704 25.0868 89.4863Z" fill="#FEB455"/>
<path d="M88.0316 77.6537C87.6867 76.8465 87.4939 75.9758 87.3719 75.1094C87.3167 74.7171 87.3046 74.3275 87.3373 73.9326C87.3399 73.9018 87.3616 73.7829 87.3898 73.6741C87.4252 73.7206 87.4839 73.7807 87.5434 73.8816C88.6279 75.723 89.5344 77.848 89.8839 79.9603C89.9275 80.2221 89.9525 80.4852 89.9629 80.7475C89.1634 79.817 88.5058 78.7631 88.0316 77.6537ZM78.2946 76.7428C78.7494 77.4562 79.0564 78.469 79.2508 78.944C79.6049 79.8109 79.8868 80.707 80.1173 81.6163C79.0933 80.1241 78.3737 78.422 78.2946 76.7428ZM95.8138 84.1681C94.4294 83.956 93.15 83.4008 92.0204 82.6161C92.4254 80.63 91.9467 78.4916 91.2455 76.6371C90.817 75.5035 90.2959 74.4139 89.7543 73.3309C89.2322 72.2867 88.6384 71.4779 87.4264 71.2894C86.3454 71.1215 85.5713 72.1833 85.2611 73.0531C84.9033 74.0567 85.1163 75.2849 85.3055 76.3012C85.6873 78.3543 86.6852 80.2486 87.9637 81.879C88.4096 82.4478 88.9078 82.9741 89.4465 83.4551C89.1841 84.0323 88.8244 84.5681 88.3626 85.0335C86.9411 86.466 85.1359 86.1567 83.5906 85.1137C83.3366 84.9424 83.082 84.7531 82.8289 84.5499C82.7763 84.121 82.7175 83.6952 82.6519 83.2779C82.3339 81.2487 81.7132 79.273 80.9151 77.3841C80.2536 75.8187 79.3622 74.0004 77.4532 73.8622C76.8395 73.8175 76.4299 74.3055 76.3485 74.8629C75.7604 78.8927 77.9007 82.7185 80.778 85.4473C80.8684 86.5233 80.8799 87.6055 80.8299 88.685C80.7746 89.8729 80.4954 91.8061 79.1757 92.2657C77.947 92.6934 76.2881 91.7347 75.2591 91.1435C74.5049 90.71 73.8171 90.1855 73.1844 89.5984C73.1311 89.1412 73.0652 88.6846 72.9859 88.2295C72.6749 86.4408 72.1146 84.6985 71.408 83.0287C70.818 81.6347 69.883 79.7318 68.0855 79.8523C67.5625 79.8873 66.9436 80.234 66.9795 80.8543C67.1822 84.3833 68.5682 87.6498 70.9548 90.2597C71.036 90.3483 71.1212 90.4331 71.2048 90.5196C71.4925 93.2416 71.2307 96.0365 70.5171 98.6686C70.1966 99.8503 71.9743 100.423 72.3338 99.2423C73.0196 96.9893 73.3534 94.6624 73.3468 92.3284C73.9041 92.7116 74.4863 93.0565 75.0861 93.3579C76.7307 94.1848 78.574 94.8013 80.3428 93.9993C81.9946 93.2504 82.5973 91.2207 82.857 89.5935C82.9817 88.8125 83.0277 88.0086 83.02 87.1999C84.4591 88.0445 86.1115 88.4486 87.7705 87.861C89.2969 87.3203 90.4453 86.1614 91.2051 84.7745C92.4931 85.5814 93.9199 86.1688 95.3963 86.495C97.0822 86.8672 97.5186 84.4291 95.8138 84.1681Z" fill="white"/>
<path d="M95.2011 78.6544C97.1503 90.5088 98.8991 102.403 100.335 114.331C100.507 115.759 102.727 115.534 102.553 114.108C101.097 102.172 99.3261 90.2836 97.1341 78.4599C96.9079 77.2404 94.9969 77.4128 95.2011 78.6544Z" fill="white"/>
<path d="M64.6854 93.7124C72.7033 102.659 80.5734 111.747 88.1979 121.032C89.1108 122.143 90.8618 120.76 89.9482 119.651C82.3018 110.371 74.4167 101.299 66.2105 92.5092C65.3641 91.6026 63.8459 92.7755 64.6854 93.7124Z" fill="white"/>
</svg>