<svg xmlns="http://www.w3.org/2000/svg" width="118" height="118" viewBox="0 0 118 118" fill="none">
<path d="M118 59C118 26.4152 91.5848 0 59 0C26.4152 0 0 26.4152 0 59C0 91.5848 26.4152 118 59 118C91.5848 118 118 91.5848 118 59Z" fill="#E67290" fill-opacity="0.2"/>
<path fill-rule="evenodd" clip-rule="evenodd" d="M22 59C22 44.0883 34.0883 32 49 32H51.5783C54.135 32 56.3208 33.5348 56.5046 36.0849C56.5594 36.8452 56.5938 37.729 56.5938 38.75C56.5938 39.7711 56.5594 40.6548 56.5046 41.4151C56.3208 43.9652 54.135 45.5 51.5783 45.5H49C41.5442 45.5 35.5 51.5442 35.5 59C35.5 66.456 41.5442 72.5 49 72.5H51.5783C54.135 72.5 56.3208 74.035 56.5046 76.585C56.5594 77.345 56.5937 78.229 56.5938 79.25C56.5938 80.271 56.5594 81.155 56.5046 81.915C56.3208 84.465 54.135 86 51.5783 86H49C34.0883 86 22 73.912 22 59Z" fill="#2DC3F5"/>
<path fill-rule="evenodd" clip-rule="evenodd" d="M96.25 59C96.25 73.912 84.162 86 69.25 86H66.672C64.115 86 61.929 84.465 61.745 81.915C61.691 81.155 61.656 80.271 61.656 79.25C61.656 78.229 61.691 77.345 61.745 76.585C61.929 74.035 64.115 72.5 66.672 72.5H69.25C76.706 72.5 82.75 66.456 82.75 59C82.75 51.5442 76.706 45.5 69.25 45.5H66.672C64.115 45.5 61.929 43.9652 61.745 41.4151C61.691 40.6548 61.656 39.771 61.656 38.75C61.656 37.7289 61.691 36.8452 61.745 36.0849C61.929 33.5348 64.115 32 66.672 32H69.25C84.162 32 96.25 44.0883 96.25 59Z" fill="#2DC3F5"/>
<path fill-rule="evenodd" clip-rule="evenodd" d="M22 59C22 44.0883 34.0883 32 49 32H51.5783C54.135 32 56.3208 33.5348 56.5046 36.0849C56.5594 36.8452 56.5938 37.729 56.5938 38.75C56.5938 39.7711 56.5594 40.6548 56.5046 41.4151C56.3208 43.9652 54.135 45.5 51.5783 45.5H49C41.5442 45.5 35.5 51.5442 35.5 59C35.5 66.456 41.5442 72.5 49 72.5H51.5783C54.135 72.5 56.3208 74.035 56.5046 76.585C56.5594 77.345 56.5937 78.229 56.5938 79.25C56.5938 80.271 56.5594 81.155 56.5046 81.915C56.3208 84.465 54.135 86 51.5783 86H49C34.0883 86 22 73.912 22 59Z" stroke="black" stroke-width="4"/>
<path fill-rule="evenodd" clip-rule="evenodd" d="M96.25 59C96.25 73.912 84.162 86 69.25 86H66.672C64.115 86 61.929 84.465 61.745 81.915C61.691 81.155 61.656 80.271 61.656 79.25C61.656 78.229 61.691 77.345 61.745 76.585C61.929 74.035 64.115 72.5 66.672 72.5H69.25C76.706 72.5 82.75 66.456 82.75 59C82.75 51.5442 76.706 45.5 69.25 45.5H66.672C64.115 45.5 61.929 43.9652 61.745 41.4151C61.691 40.6548 61.656 39.771 61.656 38.75C61.656 37.7289 61.691 36.8452 61.745 36.0849C61.929 33.5348 64.115 32 66.672 32H69.25C84.162 32 96.25 44.0883 96.25 59Z" stroke="black" stroke-width="4"/>
<path fill-rule="evenodd" clip-rule="evenodd" d="M42.25 59C42.25 55.2721 45.2721 52.25 49 52.25H69.25C72.978 52.25 76 55.2721 76 59C76 62.728 72.978 65.75 69.25 65.75H49C45.2721 65.75 42.25 62.728 42.25 59Z" fill="black"/>
</svg>