<svg xmlns="http://www.w3.org/2000/svg" width="133" height="135" viewBox="0 0 133 135" fill="none">
<path d="M88.3768 73.9239L89.485 78.5546L108.244 74.2465L107.136 69.6158L88.3768 73.9239Z" fill="#F47458" stroke="black" stroke-width="2"/>
<mask id="path-2-inside-1_128_2947" fill="white">
<path d="M24.7496 60.3191C24.7496 60.3191 7.26616 67.0337 14.1259 83.5069C20.5212 98.8643 35.2647 92.0613 39.0579 90.3463C42.8525 88.6322 24.7496 60.3191 24.7496 60.3191Z"/>
</mask>
<path d="M24.7496 60.3191C24.7496 60.3191 7.26616 67.0337 14.1259 83.5069C20.5212 98.8643 35.2647 92.0613 39.0579 90.3463C42.8525 88.6322 24.7496 60.3191 24.7496 60.3191Z" fill="#F8AB11"/>
<path d="M14.1259 83.5069L12.2756 84.2585L12.2756 84.2585L14.1259 83.5069ZM39.0579 90.3463L38.217 88.5277L38.2176 88.5275L39.0579 90.3463ZM24.7496 60.3191C25.484 62.1821 25.4848 62.1818 25.4856 62.1816C25.4857 62.1815 25.4864 62.1812 25.4867 62.1811C25.4874 62.1809 25.4877 62.1807 25.4878 62.1807C25.4881 62.1806 25.4873 62.1809 25.4854 62.1816C25.4818 62.1831 25.4741 62.1861 25.4626 62.1907C25.4395 62.2 25.4009 62.2157 25.3481 62.238C25.2423 62.2825 25.08 62.3529 24.8709 62.45C24.4522 62.6444 23.8499 62.9439 23.1428 63.3533C21.7197 64.1772 19.9193 65.419 18.3337 67.106C16.7524 68.7882 15.4236 70.8702 14.846 73.393C14.2733 75.8947 14.4041 78.9801 15.9762 82.7552L12.2756 84.2585C10.4178 79.7971 10.1617 75.8656 10.9378 72.4753C11.7091 69.106 13.4649 66.4207 15.3971 64.3651C17.3248 62.3143 19.4666 60.8479 21.1073 59.898C21.932 59.4205 22.6421 59.0667 23.1527 58.8296C23.4083 58.7109 23.6149 58.621 23.7619 58.5591C23.8354 58.5282 23.8942 58.5042 23.9368 58.4871C23.9581 58.4785 23.9754 58.4716 23.9886 58.4665C23.9951 58.4639 24.0006 58.4618 24.0051 58.46C24.0073 58.4592 24.0093 58.4584 24.011 58.4577C24.0118 58.4574 24.0129 58.457 24.0133 58.4568C24.0143 58.4565 24.0153 58.4561 24.7496 60.3191ZM15.9762 82.7552C17.4449 86.2822 19.3229 88.3821 21.2581 89.6181C23.202 90.8596 25.3626 91.3308 27.5531 91.3328C32.024 91.3369 36.2906 89.3987 38.217 88.5277L39.8987 92.1649C38.032 93.0088 33.0302 95.3297 27.5823 95.3247C24.8133 95.3221 21.8519 94.7218 19.1141 92.9732C16.3678 91.2191 14.0045 88.4102 12.2756 84.2585L15.9762 82.7552ZM38.2176 88.5275C37.757 88.7355 37.6053 89.1193 37.5783 89.2266C37.5647 89.2806 37.5977 89.1792 37.5478 88.8246C37.4506 88.1324 37.129 87.0677 36.5633 85.6599C35.4484 82.8856 33.5918 79.2754 31.575 75.6452C29.5677 72.032 27.4389 68.465 25.8091 65.797C24.9949 64.4641 24.3068 63.3582 23.8227 62.5863C23.5807 62.2004 23.3898 61.8981 23.2597 61.6927C23.1947 61.5901 23.1448 61.5117 23.1114 61.4592C23.0947 61.433 23.0821 61.4132 23.0738 61.4002C23.0696 61.3937 23.0665 61.3888 23.0645 61.3856C23.0635 61.3841 23.0628 61.3829 23.0623 61.3822C23.0621 61.3818 23.062 61.3816 23.0618 61.3814C23.0618 61.3813 23.0618 61.3813 24.7496 60.3191C26.4375 59.2569 26.4377 59.2571 26.4379 59.2575C26.438 59.2577 26.4383 59.2581 26.4386 59.2586C26.4393 59.2596 26.4402 59.2611 26.4414 59.2629C26.4437 59.2666 26.4472 59.272 26.4517 59.2791C26.4607 59.2933 26.4741 59.3142 26.4915 59.3416C26.5264 59.3964 26.5777 59.4772 26.6443 59.5823C26.7776 59.7925 26.9719 60.1002 27.2174 60.4918C27.7085 61.2749 28.4051 62.3944 29.2287 63.7427C30.8746 66.437 33.0344 70.0554 35.0784 73.7347C37.113 77.3969 39.0706 81.1864 40.2828 84.203C40.8806 85.6905 41.3508 87.119 41.5172 88.3032C41.5992 88.8869 41.632 89.5696 41.4667 90.2266C41.288 90.937 40.833 91.7428 39.8981 92.1652L38.2176 88.5275Z" fill="black" mask="url(#path-2-inside-1_128_2947)"/>
<mask id="path-4-inside-2_128_2947" fill="white">
<path d="M43.4256 92.4639C43.4256 92.4639 50.7277 105.453 52.2661 116.494C53.7002 126.79 55.5668 128.133 59.3126 126.936C63.0582 125.738 71.7942 121.37 71.0969 117.736C70.3982 114.101 64.2708 96.0261 55.4736 87.5892C46.6749 79.1513 43.4256 92.4639 43.4256 92.4639Z"/>
</mask>
<path d="M43.4256 92.4639C43.4256 92.4639 50.7277 105.453 52.2661 116.494C53.7002 126.79 55.5668 128.133 59.3126 126.936C63.0582 125.738 71.7942 121.37 71.0969 117.736C70.3982 114.101 64.2708 96.0261 55.4736 87.5892C46.6749 79.1513 43.4256 92.4639 43.4256 92.4639Z" fill="#5E48DB"/>
<path d="M52.2661 116.494L54.2511 116.235L54.2511 116.235L52.2661 116.494ZM59.3126 126.936L59.9397 128.837L59.9391 128.837L59.3126 126.936ZM71.0969 117.736L73.0652 117.376L73.0653 117.377L71.0969 117.736ZM55.4736 87.5892L56.8575 86.1569L56.8575 86.157L55.4736 87.5892ZM43.4256 92.4639C45.1723 91.4997 45.1725 91.5 45.1726 91.5004C45.1727 91.5005 45.173 91.5009 45.1732 91.5013C45.1736 91.502 45.1741 91.5029 45.1747 91.504C45.1759 91.5062 45.1776 91.5092 45.1797 91.513C45.1839 91.5206 45.1899 91.5312 45.1976 91.545C45.2129 91.5725 45.235 91.6123 45.2634 91.664C45.3202 91.7672 45.4025 91.9179 45.5071 92.1122C45.7162 92.5008 46.0144 93.0645 46.376 93.7741C47.0989 95.1923 48.0778 97.198 49.1061 99.556C51.1483 104.239 53.4442 110.444 54.2511 116.235L50.2811 116.752C49.5496 111.502 47.4253 105.692 45.4318 101.121C44.4422 98.8515 43.4994 96.92 42.8051 95.5577C42.4582 94.8771 42.1739 94.3398 41.9776 93.9749C41.8795 93.7926 41.8034 93.6534 41.7525 93.561C41.7271 93.5148 41.708 93.4803 41.6956 93.458C41.6894 93.4469 41.6848 93.4387 41.682 93.4337C41.6806 93.4312 41.6797 93.4295 41.6791 93.4286C41.6789 93.4281 41.6787 93.4278 41.6787 93.4277C41.6786 93.4277 41.6787 93.4278 41.6787 93.4278C41.6787 93.4279 41.6789 93.4281 43.4256 92.4639ZM54.2511 116.235C54.6039 118.769 54.9747 120.684 55.3755 122.116C55.7826 123.571 56.1839 124.388 56.5196 124.832C56.8032 125.207 56.9925 125.263 57.1418 125.288C57.3977 125.33 57.8548 125.301 58.6862 125.035L59.9391 128.837C58.8976 129.17 57.7166 129.422 56.5242 129.227C55.2252 129.014 54.1559 128.316 53.3253 127.217C52.5469 126.188 51.9785 124.814 51.5152 123.159C51.0456 121.481 50.6453 119.367 50.2811 116.752L54.2511 116.235ZM58.6856 125.035C60.3919 124.489 63.3461 123.175 65.7529 121.584C66.96 120.786 67.9241 119.986 68.5275 119.259C69.1672 118.488 69.1359 118.133 69.1286 118.095L73.0653 117.377C73.4066 119.156 72.5448 120.709 71.6255 121.817C70.67 122.968 69.3467 124.017 67.9888 124.915C65.2655 126.715 61.9789 128.184 59.9397 128.837L58.6856 125.035ZM69.1287 118.095C68.8209 116.494 67.1827 111.226 64.4953 105.269C61.8045 99.3031 58.2013 92.9647 54.0897 89.0214L56.8575 86.157C61.5431 90.6506 65.4022 97.5678 68.1492 103.658C70.8995 109.755 72.6743 115.343 73.0652 117.376L69.1287 118.095ZM54.0897 89.0214C52.0971 87.1106 50.7531 86.7545 49.9757 86.7855C49.2089 86.816 48.4525 87.2456 47.6907 88.1514C46.9292 89.0567 46.3417 90.2365 45.9359 91.2612C45.738 91.7608 45.5939 92.1963 45.5003 92.503C45.4537 92.6558 45.42 92.7752 45.3989 92.8528C45.3884 92.8916 45.381 92.9198 45.3767 92.9364C45.3746 92.9448 45.3732 92.9502 45.3726 92.9525C45.3723 92.9537 45.3722 92.9541 45.3723 92.9538C45.3724 92.9536 45.3725 92.9532 45.3726 92.9527C45.3727 92.9524 45.3728 92.9518 45.3728 92.9517C45.373 92.9511 45.3732 92.9504 43.4256 92.4639C41.478 91.9774 41.4782 91.9767 41.4784 91.9758C41.4785 91.9755 41.4787 91.9746 41.4788 91.9739C41.4792 91.9726 41.4796 91.971 41.48 91.9692C41.4809 91.9656 41.482 91.9612 41.4833 91.956C41.4859 91.9457 41.4893 91.9321 41.4936 91.9155C41.5021 91.8823 41.5141 91.8368 41.5295 91.7801C41.5603 91.6669 41.6051 91.5085 41.6645 91.3137C41.783 90.9254 41.9614 90.3868 42.2057 89.7701C42.684 88.5624 43.4588 86.9414 44.6094 85.5733C45.7598 84.2056 47.4655 82.8892 49.7826 82.7968C52.0891 82.7048 54.4507 83.8489 56.8575 86.1569L54.0897 89.0214Z" fill="black" mask="url(#path-4-inside-2_128_2947)"/>
<mask id="path-6-inside-3_128_2947" fill="white">
<path d="M71.5033 14.0353C71.5033 14.0353 46.6147 42.3315 38.4649 51.0352L34.7728 60.6114L44.5678 83.79L55.3856 86.2391L104.977 84.5273L102.631 79.5631L88.434 58.1551L77.6704 32.5436L72.4721 16.4687L71.5033 14.0353Z"/>
</mask>
<path d="M71.5033 14.0353C71.5033 14.0353 46.6147 42.3315 38.4649 51.0352L34.7728 60.6114L44.5678 83.79L55.3856 86.2391L104.977 84.5273L102.631 79.5631L88.434 58.1551L77.6704 32.5436L72.4721 16.4687L71.5033 14.0353Z" fill="#5E48DB"/>
<path d="M38.4649 51.0352L36.5932 50.3064L36.7314 49.948L36.994 49.6675L38.4649 51.0352ZM34.7728 60.6114L32.9267 61.3728L32.6129 60.6303L32.9012 59.8826L34.7728 60.6114ZM44.5678 83.79L44.1389 85.7361L43.1253 85.5066L42.7216 84.5514L44.5678 83.79ZM55.3856 86.2391L55.4714 88.2339L55.2111 88.2429L54.9566 88.1852L55.3856 86.2391ZM104.977 84.5273L106.789 83.6896L108.079 86.418L105.063 86.5221L104.977 84.5273ZM102.631 79.5631L104.301 78.4727L104.381 78.5939L104.443 78.7253L102.631 79.5631ZM88.434 58.1551L86.7645 59.2456L86.6597 59.0875L86.5863 58.9129L88.434 58.1551ZM77.6704 32.5436L75.8226 33.3014L75.7895 33.2226L75.7632 33.1413L77.6704 32.5436ZM72.4721 16.4687L74.3343 15.7462L74.3588 15.8079L74.3792 15.871L72.4721 16.4687ZM71.5033 14.0353C73.0155 15.3575 73.0154 15.3576 73.0152 15.3578C73.015 15.358 73.0147 15.3583 73.0144 15.3588C73.0136 15.3596 73.0124 15.3609 73.0109 15.3627C73.0079 15.3661 73.0034 15.3713 72.9973 15.3781C72.9853 15.3918 72.9674 15.4122 72.9437 15.4391C72.8963 15.493 72.8258 15.5731 72.7336 15.6778C72.5492 15.8874 72.2777 16.1958 71.9293 16.5913C71.2325 17.3824 70.228 18.5222 68.9973 19.917C66.5359 22.7067 63.1689 26.5171 59.5469 30.5998C52.3115 38.7556 44.0326 48.0275 39.9357 52.4028L36.994 49.6675C41.047 45.3391 49.2873 36.1111 56.5337 27.9429C60.1526 23.8636 63.5171 20.056 65.977 17.2682C67.2069 15.8743 68.2106 14.7354 68.9067 13.945C69.2548 13.5499 69.526 13.2418 69.7101 13.0326C69.8022 12.928 69.8725 12.8481 69.9197 12.7944C69.9434 12.7675 69.9612 12.7472 69.9732 12.7336C69.9792 12.7268 69.9837 12.7217 69.9867 12.7183C69.9882 12.7166 69.9893 12.7153 69.9901 12.7145C69.9904 12.714 69.9907 12.7137 69.9909 12.7135C69.9911 12.7133 69.9912 12.7132 71.5033 14.0353ZM40.3365 51.7639L36.6445 61.3401L32.9012 59.8826L36.5932 50.3064L40.3365 51.7639ZM36.619 59.85L46.414 83.0286L42.7216 84.5514L32.9267 61.3728L36.619 59.85ZM44.9968 81.8439L55.8145 84.2931L54.9566 88.1852L44.1389 85.7361L44.9968 81.8439ZM55.2997 84.2444L104.891 82.5326L105.063 86.5221L55.4714 88.2339L55.2997 84.2444ZM103.165 85.3651L100.819 80.4009L104.443 78.7253L106.789 83.6896L103.165 85.3651ZM100.962 80.6535L86.7645 59.2456L90.1035 57.0647L104.301 78.4727L100.962 80.6535ZM86.5863 58.9129L75.8226 33.3014L79.5181 31.7859L90.2817 57.3974L86.5863 58.9129ZM75.7632 33.1413L70.565 17.0664L74.3792 15.871L79.5775 31.9459L75.7632 33.1413ZM70.6099 17.1911L69.6412 14.7578L73.3655 13.3129L74.3343 15.7462L70.6099 17.1911Z" fill="black" mask="url(#path-6-inside-3_128_2947)"/>
<mask id="path-8-inside-4_128_2947" fill="white">
<path d="M38.4649 51.0335C38.4649 51.0335 39.3935 72.3888 55.3851 86.2381C55.3851 86.2381 56.4241 87.6224 55.1902 88.9187L46.7801 93.2115C46.7801 93.2115 42.9762 95.6026 38.0819 90.5695C33.188 85.5376 23.8682 73.8463 24.0663 58.5363C24.0663 58.5363 24.0225 54.4139 28.7308 52.5733L34.9505 49.8797C34.9505 49.8797 37.7323 48.7766 38.4649 51.0335Z"/>
</mask>
<path d="M38.4649 51.0335C38.4649 51.0335 39.3935 72.3888 55.3851 86.2381C55.3851 86.2381 56.4241 87.6224 55.1902 88.9187L46.7801 93.2115C46.7801 93.2115 42.9762 95.6026 38.0819 90.5695C33.188 85.5376 23.8682 73.8463 24.0663 58.5363C24.0663 58.5363 24.0225 54.4139 28.7308 52.5733L34.9505 49.8797C34.9505 49.8797 37.7323 48.7766 38.4649 51.0335Z" fill="#4027CE"/>
<path d="M55.3851 86.2381L56.6931 84.7367L56.8568 84.8785L56.9868 85.0516L55.3851 86.2381ZM55.1902 88.9187L56.6499 90.2981L56.4171 90.5426L56.1158 90.6965L55.1902 88.9187ZM46.7801 93.2115L45.7005 91.5211L45.7755 91.474L45.8545 91.4337L46.7801 93.2115ZM38.0819 90.5695L39.5159 89.1869L39.516 89.1871L38.0819 90.5695ZM24.0663 58.5363L26.0703 58.5315L26.0706 58.555L26.0703 58.5784L24.0663 58.5363ZM28.7308 52.5733L29.5427 54.4047L29.5097 54.4189L29.4763 54.432L28.7308 52.5733ZM34.9505 49.8797L34.1386 48.0483L34.1671 48.036L34.196 48.0245L34.9505 49.8797ZM38.4649 51.0335C40.4671 50.9635 40.4671 50.9629 40.4671 50.9623C40.4671 50.9622 40.4671 50.9618 40.4671 50.9617C40.467 50.9614 40.467 50.9614 40.4671 50.9618C40.4671 50.9625 40.4672 50.9645 40.4673 50.9677C40.4677 50.9742 40.4683 50.9858 40.4692 51.0023C40.471 51.0354 40.4741 51.0883 40.4789 51.1601C40.4885 51.3037 40.505 51.523 40.5317 51.8109C40.585 52.3868 40.6793 53.2365 40.8414 54.304C41.1659 56.441 41.7609 59.4399 42.8396 62.8581C45.0022 69.711 49.0723 78.1368 56.6931 84.7367L54.0772 87.7396C45.7063 80.4901 41.3164 71.3136 39.0168 64.0265C37.8644 60.3747 37.2277 57.1692 36.8784 54.8693C36.7036 53.7183 36.6004 52.7914 36.5405 52.1454C36.5106 51.8223 36.4914 51.5692 36.4797 51.3933C36.4738 51.3053 36.4697 51.2366 36.467 51.188C36.4657 51.1637 36.4647 51.1444 36.464 51.1303C36.4637 51.1232 36.4634 51.1175 36.4632 51.113C36.4631 51.1107 36.463 51.1088 36.4629 51.1072C36.4629 51.1065 36.4628 51.1055 36.4628 51.1051C36.4628 51.1042 36.4627 51.1035 38.4649 51.0335ZM55.3851 86.2381C56.9868 85.0516 56.9874 85.0524 56.988 85.0532C56.9882 85.0535 56.9888 85.0543 56.9892 85.0549C56.9901 85.056 56.9909 85.0572 56.9918 85.0583C56.9936 85.0607 56.9954 85.0631 56.9973 85.0657C57.001 85.0708 57.0051 85.0763 57.0094 85.0823C57.018 85.0941 57.0276 85.1076 57.0382 85.1227C57.0592 85.1529 57.0841 85.1896 57.1118 85.2326C57.1669 85.3182 57.2346 85.4308 57.3056 85.5673C57.4449 85.8349 57.6133 86.2245 57.7128 86.7035C57.9271 87.7357 57.7889 89.1015 56.6499 90.2981L53.7304 87.5392C53.8121 87.4534 53.803 87.428 53.7935 87.4668C53.7868 87.4944 53.7928 87.5046 53.788 87.4811C53.7819 87.452 53.7677 87.4146 53.7507 87.3821C53.7437 87.3685 53.7398 87.3629 53.7429 87.3677C53.7446 87.3703 53.7484 87.3761 53.7548 87.3853C53.7581 87.3899 53.762 87.3955 53.7668 87.4021C53.7691 87.4053 53.7717 87.4088 53.7745 87.4126C53.7759 87.4145 53.7773 87.4164 53.7788 87.4185C53.7796 87.4195 53.7803 87.4205 53.7811 87.4215C53.7815 87.4221 53.7821 87.4228 53.7823 87.4231C53.7829 87.4239 53.7835 87.4247 55.3851 86.2381ZM56.1158 90.6965L47.7057 94.9892L45.8545 91.4337L54.2645 87.1409L56.1158 90.6965ZM46.7801 93.2115C47.8597 94.9018 47.8584 94.9026 47.8571 94.9034C47.8567 94.9037 47.8554 94.9045 47.8545 94.9051C47.8527 94.9062 47.8508 94.9074 47.8489 94.9086C47.845 94.9109 47.8409 94.9135 47.8365 94.9162C47.8278 94.9215 47.818 94.9274 47.8071 94.9339C47.7855 94.9468 47.7597 94.9617 47.7299 94.9784C47.6703 95.0119 47.5942 95.0524 47.5024 95.0973C47.3191 95.187 47.071 95.2949 46.7639 95.3982C46.1495 95.6046 45.2907 95.7944 44.2425 95.7734C42.0819 95.73 39.4174 94.8 36.6479 91.952L39.516 89.1871C41.6408 91.3721 43.3253 91.763 44.2903 91.7824C44.8048 91.7927 45.2028 91.6993 45.4546 91.6147C45.5806 91.5724 45.6679 91.5329 45.7118 91.5114C45.7335 91.5008 45.744 91.4949 45.7425 91.4957C45.7417 91.4962 45.7379 91.4983 45.7309 91.5025C45.7275 91.5045 45.7232 91.5071 45.7181 91.5102C45.7156 91.5117 45.7129 91.5134 45.7099 91.5152C45.7085 91.5162 45.7069 91.5171 45.7054 91.5181C45.7046 91.5186 45.7034 91.5193 45.703 91.5196C45.7018 91.5203 45.7005 91.5211 46.7801 93.2115ZM36.648 91.9521C31.6337 86.7965 21.8539 74.6085 22.0624 58.4942L26.0703 58.5784C25.8825 73.0842 34.7422 84.2787 39.5159 89.1869L36.648 91.9521ZM24.0663 58.5363C22.0624 58.541 22.0624 58.5399 22.0624 58.5387C22.0624 58.5383 22.0623 58.5372 22.0623 58.5364C22.0623 58.5347 22.0623 58.5331 22.0623 58.5313C22.0623 58.5278 22.0623 58.524 22.0623 58.52C22.0622 58.5119 22.0623 58.5028 22.0623 58.4926C22.0625 58.4723 22.0629 58.4478 22.0637 58.4194C22.0652 58.3627 22.0683 58.2899 22.0743 58.2029C22.0862 58.0292 22.1098 57.7969 22.1562 57.5197C22.2485 56.9678 22.4338 56.222 22.8085 55.4042C23.5762 53.7286 25.1021 51.8417 27.9853 50.7145L29.4763 54.432C27.6512 55.1455 26.8449 56.2401 26.4574 57.0859C26.2545 57.5286 26.1566 57.9286 26.11 58.2071C26.0869 58.3452 26.0771 58.4492 26.0731 58.5082C26.071 58.5375 26.0705 58.5551 26.0703 58.5596C26.0703 58.5619 26.0703 58.5608 26.0704 58.5561C26.0704 58.5538 26.0704 58.5507 26.0704 58.5466C26.0704 58.5445 26.0704 58.5422 26.0704 58.5397C26.0704 58.5385 26.0704 58.5372 26.0703 58.5358C26.0703 58.5351 26.0703 58.5341 26.0703 58.5337C26.0703 58.5326 26.0703 58.5315 24.0663 58.5363ZM27.919 50.7419L34.1386 48.0483L35.7623 51.7111L29.5427 54.4047L27.919 50.7419ZM34.9505 49.8797C34.196 48.0245 34.1967 48.0242 34.1974 48.0239C34.1977 48.0238 34.1985 48.0235 34.199 48.0233C34.2 48.0229 34.2011 48.0225 34.2023 48.022C34.2045 48.0211 34.207 48.0202 34.2097 48.0191C34.2149 48.0171 34.221 48.0148 34.2277 48.0122C34.2412 48.007 34.2575 48.0009 34.2766 47.9939C34.3147 47.98 34.3639 47.9625 34.4231 47.9429C34.5407 47.9038 34.701 47.8547 34.8931 47.8067C35.2657 47.7134 35.814 47.6094 36.4327 47.6144C37.0452 47.6194 37.8461 47.7323 38.6151 48.1846C39.4314 48.6646 40.0457 49.4307 40.3713 50.4336L36.5585 51.6333C36.5178 51.5079 36.5096 51.5655 36.5983 51.6176C36.6396 51.6419 36.6077 51.6075 36.4332 51.6061C36.2649 51.6048 36.072 51.6355 35.9001 51.6786C35.8199 51.6986 35.7571 51.7181 35.7198 51.7305C35.7014 51.7366 35.6902 51.7407 35.6872 51.7418C35.6857 51.7423 35.6863 51.7421 35.6892 51.741C35.6907 51.7405 35.6927 51.7397 35.6953 51.7387C35.6966 51.7382 35.6981 51.7376 35.6997 51.737C35.7005 51.7366 35.7013 51.7363 35.7022 51.736C35.7026 51.7358 35.7033 51.7355 35.7035 51.7354C35.7042 51.7352 35.7049 51.7349 34.9505 49.8797Z" fill="black" mask="url(#path-8-inside-4_128_2947)"/>
<mask id="path-10-inside-5_128_2947" fill="white">
<path d="M71.5032 14.0338C71.5032 14.0338 77.9625 6.60518 82.5064 5.68773C87.0491 4.77058 92.968 9.61009 97.0455 13.735C101.12 17.8591 113.312 34.9203 117.087 47.4628C120.86 60.0062 125.073 78.1407 119.245 81.7558C113.417 85.3724 104.977 84.5266 104.977 84.5266C104.977 84.5266 92.663 78.2471 80.2576 52.7581C67.8511 27.2701 71.5032 14.0338 71.5032 14.0338Z"/>
</mask>
<path d="M71.5032 14.0338C71.5032 14.0338 77.9625 6.60518 82.5064 5.68773C87.0491 4.77058 92.968 9.61009 97.0455 13.735C101.12 17.8591 113.312 34.9203 117.087 47.4628C120.86 60.0062 125.073 78.1407 119.245 81.7558C113.417 85.3724 104.977 84.5266 104.977 84.5266C104.977 84.5266 92.663 78.2471 80.2576 52.7581C67.8511 27.2701 71.5032 14.0338 71.5032 14.0338Z" fill="#3A24B7"/>
<path d="M82.5064 5.68773L82.0928 3.73147L82.0928 3.73146L82.5064 5.68773ZM97.0455 13.735L98.4679 12.3406L98.4683 12.341L97.0455 13.735ZM117.087 47.4628L119.006 46.9041L119.007 46.9045L117.087 47.4628ZM119.245 81.7558L118.175 80.0593L118.176 80.0592L119.245 81.7558ZM104.977 84.5266L104.793 86.5125L104.415 86.4746L104.075 86.3016L104.977 84.5266ZM80.2576 52.7581L82.0596 51.8994L82.0597 51.8995L80.2576 52.7581ZM71.5032 14.0338C69.9836 12.7201 69.9838 12.7199 69.9841 12.7196C69.9842 12.7195 69.9844 12.7192 69.9847 12.719C69.9851 12.7185 69.9856 12.7178 69.9863 12.7171C69.9876 12.7156 69.9892 12.7137 69.9913 12.7114C69.9954 12.7067 70.0011 12.7002 70.0083 12.692C70.0227 12.6755 70.0432 12.6522 70.0696 12.6225C70.1224 12.5629 70.1986 12.4775 70.2962 12.3696C70.4914 12.154 70.7728 11.848 71.1237 11.4793C71.824 10.7437 72.8097 9.74956 73.9478 8.72147C75.0811 7.69766 76.3946 6.61371 77.7499 5.71481C79.0762 4.83516 80.5846 4.03598 82.0928 3.73147L82.9201 7.64398C82.1563 7.79819 81.1534 8.27163 79.9905 9.04289C78.8567 9.79489 77.7034 10.7401 76.6539 11.6881C75.6092 12.6319 74.6961 13.5523 74.0432 14.2382C73.7176 14.5802 73.4588 14.8618 73.2831 15.056C73.1952 15.153 73.1282 15.2281 73.0841 15.2778C73.0621 15.3027 73.0458 15.3212 73.0355 15.333C73.0303 15.3388 73.0267 15.343 73.0246 15.3454C73.0235 15.3467 73.0228 15.3474 73.0225 15.3478C73.0224 15.3479 73.0223 15.348 73.0224 15.348C73.0224 15.3479 73.0225 15.3478 73.0225 15.3478C73.0227 15.3476 73.0228 15.3475 71.5032 14.0338ZM82.0928 3.73146C85.1556 3.11309 88.3471 4.4578 91.0117 6.13625C93.7564 7.86521 96.3801 10.2286 98.4679 12.3406L95.6231 15.1293C93.6334 13.1165 91.2588 10.9976 88.8891 9.50492C86.4392 7.96169 84.3999 7.34522 82.9201 7.64399L82.0928 3.73146ZM98.4683 12.341C100.657 14.5566 104.815 19.9957 108.87 26.3855C112.931 32.7841 117.039 40.369 119.006 46.9041L115.168 48.0215C113.36 42.0142 109.484 34.7972 105.487 28.4985C101.484 22.191 97.5083 17.0374 95.6227 15.1289L98.4683 12.341ZM119.007 46.9045C120.903 53.2085 122.939 61.0083 123.756 67.7337C124.163 71.0865 124.283 74.2889 123.879 76.9509C123.484 79.548 122.516 82.0867 120.315 83.4523L118.176 80.0592C118.888 79.6173 119.579 78.5335 119.916 76.3216C120.242 74.1747 120.166 71.3817 119.777 68.1811C119.001 61.7997 117.044 54.2605 115.168 48.0211L119.007 46.9045ZM120.315 83.4522C117.014 85.5005 113.083 86.2342 110.112 86.4862C108.604 86.614 107.291 86.6218 106.351 86.5975C105.881 86.5853 105.501 86.5651 105.234 86.5474C105.101 86.5385 104.996 86.5303 104.921 86.5241C104.884 86.521 104.854 86.5183 104.833 86.5163C104.822 86.5153 104.813 86.5145 104.807 86.5139C104.803 86.5135 104.8 86.5133 104.798 86.513C104.797 86.5129 104.796 86.5128 104.795 86.5127C104.795 86.5127 104.794 86.5126 104.794 86.5126C104.793 86.5125 104.793 86.5125 104.977 84.5266C105.162 82.5407 105.161 82.5407 105.161 82.5407C105.161 82.5406 105.16 82.5406 105.16 82.5406C105.16 82.5405 105.159 82.5405 105.159 82.5405C105.159 82.5405 105.159 82.5405 105.16 82.5406C105.161 82.5407 105.165 82.541 105.17 82.5415C105.181 82.5425 105.199 82.5442 105.225 82.5464C105.277 82.5507 105.359 82.5572 105.468 82.5644C105.686 82.5788 106.011 82.5964 106.422 82.607C107.247 82.6283 108.409 82.6215 109.739 82.5087C112.445 82.2793 115.648 81.6276 118.175 80.0593L120.315 83.4522ZM104.977 84.5266C104.075 86.3016 104.074 86.3011 104.073 86.3005C104.073 86.3002 104.071 86.2996 104.07 86.2991C104.069 86.2982 104.067 86.2972 104.064 86.296C104.06 86.2937 104.055 86.2911 104.049 86.288C104.037 86.2818 104.022 86.2741 104.005 86.2646C103.97 86.2458 103.923 86.2202 103.864 86.1876C103.748 86.1224 103.586 86.0288 103.383 85.9039C102.975 85.654 102.4 85.2785 101.681 84.752C100.242 83.6988 98.2298 82.0432 95.836 79.5838C91.0465 74.6631 84.7457 66.5408 78.4556 53.6167L82.0597 51.8995C88.1749 64.4644 94.2339 72.2263 98.7028 76.8176C100.938 79.1142 102.78 80.6216 104.037 81.5423C104.667 82.0028 105.15 82.317 105.465 82.5101C105.622 82.6067 105.737 82.673 105.807 82.7121C105.842 82.7317 105.866 82.7446 105.878 82.751C105.884 82.7542 105.887 82.7559 105.887 82.7559C105.887 82.756 105.887 82.7556 105.885 82.7549C105.885 82.7545 105.884 82.7541 105.883 82.7535C105.882 82.7533 105.881 82.7528 105.881 82.7526C105.88 82.7521 105.879 82.7516 104.977 84.5266ZM78.4556 53.6168C72.1568 40.6765 69.8962 30.766 69.2334 24.016C68.9022 20.6429 68.9708 18.0667 69.1305 16.3046C69.2103 15.4239 69.3127 14.7475 69.3991 14.2775C69.4422 14.0426 69.4813 13.8593 69.5115 13.728C69.5266 13.6623 69.5395 13.6097 69.5495 13.57C69.5545 13.5502 69.5588 13.5337 69.5624 13.5204C69.5641 13.5137 69.5657 13.5079 69.567 13.5029C69.5677 13.5004 69.5683 13.498 69.5689 13.496C69.5692 13.4949 69.5696 13.4935 69.5697 13.493C69.5701 13.4916 69.5705 13.4903 71.5032 14.0338C73.436 14.5773 73.4363 14.5761 73.4366 14.5749C73.4367 14.5746 73.437 14.5735 73.4372 14.5729C73.4376 14.5716 73.4379 14.5705 73.4381 14.5696C73.4386 14.5678 73.4388 14.5668 73.4389 14.5666C73.439 14.5662 73.4382 14.569 73.4367 14.575C73.4337 14.587 73.4276 14.6118 73.4189 14.6493C73.4017 14.7243 73.3744 14.8504 73.342 15.0271C73.277 15.3806 73.1911 15.9374 73.1224 16.6958C72.985 18.212 72.916 20.5379 73.2225 23.6599C73.8353 29.9 75.9519 39.3517 82.0596 51.8994L78.4556 53.6168Z" fill="black" mask="url(#path-10-inside-5_128_2947)"/>
<path d="M81.1135 9.45724C80.2941 9.06622 79.6558 8.8353 79.2298 8.70333C79.0601 9.01523 78.8414 9.47866 78.6234 10.1134C78.1296 11.5511 77.6343 13.883 77.7328 17.343C77.9302 24.2716 80.5098 35.7253 90.2511 53.5305C98.2819 68.2094 104.598 75.4701 108.841 79.0521C110.958 80.8402 112.55 81.7038 113.572 82.1204C113.845 82.2317 114.078 82.3112 114.269 82.3681C114.363 82.0687 114.474 81.6748 114.587 81.1847C114.895 79.8474 115.217 77.7904 115.243 74.9764C115.295 69.3504 114.163 60.6782 109.343 48.6656C101.729 29.6889 93.9303 19.6435 88.1088 14.3548C85.1987 11.711 82.7784 10.2517 81.1135 9.45724Z" fill="#4027CE" stroke="black" stroke-width="2"/>
<path d="M94.1817 60.3683C92.9212 58.2896 91.6105 56.0174 90.2502 53.5319L94.1817 60.3683ZM94.1817 60.3683C96.0142 59.1233 98.0043 57.3857 99.1412 55.1345C100.415 52.6126 100.687 49.3122 98.1089 45.0344C95.7132 41.0603 92.7637 39.4248 89.9759 38.9036C87.5851 38.4567 85.2399 38.8173 83.3683 39.3628C85.1203 43.5638 87.3717 48.2697 90.2501 53.5317L94.1817 60.3683Z" fill="#F8AB11" stroke="black" stroke-width="2"/>
<mask id="path-14-inside-6_128_2947" fill="white">
<path d="M45.5615 93.6572L45.6345 93.6405L45.6342 93.6392L45.5612 93.656L45.5615 93.6572Z"/>
</mask>
<path d="M45.5615 93.6572L45.6345 93.6405L45.6342 93.6392L45.5612 93.656L45.5615 93.6572Z" fill="#5E48DB"/>
<path d="M45.5615 93.6572L46.027 95.6023L44.0778 96.0499L43.6123 94.1049L45.5615 93.6572ZM45.6345 93.6405L47.5838 93.1928L48.0493 95.1379L46.1 95.5855L45.6345 93.6405ZM45.6342 93.6392L45.1687 91.6942L47.118 91.2465L47.5835 93.1916L45.6342 93.6392ZM45.5612 93.656L43.612 94.1036L43.1465 92.1586L45.0957 91.7109L45.5612 93.656ZM45.096 91.7122L45.169 91.6954L46.1 95.5855L46.027 95.6023L45.096 91.7122ZM43.6852 94.0881L43.6849 94.0869L47.5835 93.1916L47.5838 93.1928L43.6852 94.0881ZM46.0997 95.5843L46.0267 95.6011L45.0957 91.7109L45.1687 91.6942L46.0997 95.5843ZM47.5105 93.2083L47.5108 93.2096L43.6123 94.1049L43.612 94.1036L47.5105 93.2083Z" fill="black" mask="url(#path-14-inside-6_128_2947)"/>
<mask id="path-16-inside-7_128_2947" fill="white">
<path d="M45.6328 93.6401C46.3641 93.4722 46.7793 93.2115 46.7793 93.2115L52.2644 90.411L46.7793 93.2115C46.7793 93.2115 46.3641 93.4722 45.6328 93.6401Z"/>
</mask>
<path d="M45.6328 93.6401C46.3641 93.4722 46.7793 93.2115 46.7793 93.2115L52.2644 90.411L46.7793 93.2115C46.7793 93.2115 46.3641 93.4722 45.6328 93.6401Z" fill="#5E48DB"/>
<path d="M46.7793 93.2115L45.7006 91.5206L45.7751 91.4738L45.8535 91.4338L46.7793 93.2115ZM46.7793 93.2115L45.7006 91.5206L45.7751 91.4738L45.8535 91.4338L46.7793 93.2115ZM45.1673 91.6951C45.394 91.643 45.5604 91.5791 45.6557 91.537C45.7031 91.5161 45.7317 91.5011 45.74 91.4966C45.7441 91.4944 45.743 91.4949 45.7366 91.4987C45.7334 91.5006 45.7288 91.5033 45.7228 91.5069C45.7198 91.5087 45.7164 91.5108 45.7128 91.513C45.7109 91.5142 45.709 91.5154 45.707 91.5166C45.7059 91.5173 45.7049 91.5179 45.7039 91.5186C45.7033 91.5189 45.7028 91.5192 45.7023 91.5196C45.702 91.5197 45.7016 91.52 45.7014 91.5201C45.701 91.5203 45.7006 91.5206 46.7793 93.2115C47.858 94.9024 47.8576 94.9027 47.8572 94.9029C47.857 94.903 47.8566 94.9033 47.8563 94.9034C47.8558 94.9038 47.8552 94.9042 47.8546 94.9045C47.8535 94.9052 47.8523 94.906 47.8511 94.9067C47.8486 94.9082 47.8461 94.9098 47.8434 94.9115C47.8381 94.9147 47.8324 94.9183 47.8262 94.922C47.8137 94.9295 47.7995 94.938 47.7835 94.9474C47.7515 94.9661 47.7122 94.9882 47.666 95.0131C47.5736 95.0627 47.4527 95.1234 47.3049 95.1887C47.0098 95.3189 46.6029 95.4693 46.0983 95.5852L45.1673 91.6951ZM45.8535 91.4338L51.3386 88.6333L53.1902 92.1887L47.7051 94.9892L45.8535 91.4338ZM53.1902 92.1887L47.7051 94.9892L45.8535 91.4338L51.3386 88.6333L53.1902 92.1887ZM46.7793 93.2115C47.858 94.9024 47.8576 94.9027 47.8572 94.9029C47.857 94.903 47.8566 94.9033 47.8563 94.9034C47.8558 94.9038 47.8552 94.9042 47.8546 94.9045C47.8535 94.9052 47.8523 94.906 47.8511 94.9067C47.8486 94.9082 47.8461 94.9098 47.8434 94.9115C47.8381 94.9147 47.8324 94.9183 47.8262 94.922C47.8137 94.9295 47.7995 94.938 47.7835 94.9474C47.7515 94.9661 47.7122 94.9882 47.666 95.0131C47.5736 95.0627 47.4527 95.1234 47.3049 95.1887C47.0098 95.3189 46.6029 95.4693 46.0983 95.5852L45.1673 91.6951C45.394 91.643 45.5604 91.5791 45.6557 91.537C45.7031 91.5161 45.7317 91.5011 45.74 91.4966C45.7441 91.4944 45.743 91.4949 45.7366 91.4987C45.7334 91.5006 45.7288 91.5033 45.7228 91.5069C45.7198 91.5087 45.7164 91.5108 45.7128 91.513C45.7109 91.5142 45.709 91.5154 45.707 91.5166C45.7059 91.5173 45.7049 91.5179 45.7039 91.5186C45.7033 91.5189 45.7028 91.5192 45.7023 91.5196C45.702 91.5197 45.7016 91.52 45.7014 91.5201C45.701 91.5203 45.7006 91.5206 46.7793 93.2115Z" fill="black" mask="url(#path-16-inside-7_128_2947)"/>
<mask id="path-18-inside-8_128_2947" fill="white">
<path d="M38.202 90.692C38.1624 90.652 38.1225 90.6108 38.0826 90.5696C37.9866 90.4714 37.89 90.3708 37.7913 90.2669C37.89 90.3708 37.9866 90.4714 38.0826 90.5696C38.1225 90.6108 38.1624 90.652 38.202 90.692Z"/>
</mask>
<path d="M38.202 90.692C38.1624 90.652 38.1225 90.6108 38.0826 90.5696C37.9866 90.4714 37.89 90.3708 37.7913 90.2669C37.89 90.3708 37.9866 90.4714 38.0826 90.5696C38.1225 90.6108 38.1624 90.652 38.202 90.692Z" fill="#B3A15E"/>
<path d="M38.0826 90.5696L39.5131 89.1835L39.5199 89.1905L38.0826 90.5696ZM38.0826 90.5696L39.5131 89.1835L39.5199 89.1905L38.0826 90.5696ZM36.78 92.0868C36.7314 92.0377 36.6839 91.9886 36.6454 91.9488L39.5199 89.1905C39.5611 89.2331 39.5933 89.2663 39.6239 89.2972L36.78 92.0868ZM36.6521 91.9557C36.5478 91.849 36.4443 91.7412 36.3409 91.6323L39.2418 88.9015C39.3356 89.0003 39.4254 89.0938 39.5131 89.1835L36.6521 91.9557ZM39.2418 88.9015C39.3356 89.0003 39.4254 89.0938 39.5131 89.1835L36.6521 91.9557C36.5478 91.849 36.4443 91.7412 36.3409 91.6323L39.2418 88.9015ZM39.5199 89.1905C39.5611 89.2331 39.5933 89.2663 39.6239 89.2972L36.78 92.0868C36.7314 92.0377 36.6839 91.9886 36.6454 91.9488L39.5199 89.1905Z" fill="black" mask="url(#path-18-inside-8_128_2947)"/>
<mask id="path-20-inside-9_128_2947" fill="white">
<path d="M55.3857 86.239C55.3774 86.2307 55.3676 86.2216 55.3581 86.2137C55.3679 86.2228 55.3759 86.2298 55.3857 86.239Z"/>
</mask>
<path d="M55.3857 86.239C55.3774 86.2307 55.3676 86.2216 55.3581 86.2137C55.3679 86.2228 55.3759 86.2298 55.3857 86.239Z" fill="#5E48DB"/>
<path d="M55.3857 86.239L56.7919 84.8285L54.022 87.6904L55.3857 86.239ZM55.3581 86.2137L53.9944 87.6651L56.6382 84.6885L55.3581 86.2137ZM53.9794 87.6494C53.991 87.6608 54.004 87.6734 54.0187 87.6869C54.0331 87.7001 54.053 87.718 54.078 87.7388L56.6382 84.6885C56.7032 84.7428 56.7559 84.7928 56.7919 84.8285L53.9794 87.6494ZM56.7217 84.7623C56.7146 84.7556 56.7089 84.7505 56.7143 84.7554C56.7178 84.7586 56.7324 84.7718 56.7493 84.7876L54.022 87.6904C54.0291 87.697 54.0348 87.7021 54.0294 87.6972C54.0259 87.694 54.0113 87.6808 53.9944 87.6651L56.7217 84.7623Z" fill="black" mask="url(#path-20-inside-9_128_2947)"/>
<mask id="path-22-inside-10_128_2947" fill="white">
<path d="M37.7868 90.2619C37.7827 90.2581 37.7802 90.254 37.7761 90.2501C37.7802 90.254 37.7842 90.2578 37.7868 90.2619Z"/>
</mask>
<path d="M37.7868 90.2619C37.7827 90.2581 37.7802 90.254 37.7761 90.2501C37.7802 90.254 37.7842 90.2578 37.7868 90.2619Z" fill="#B3A15E"/>
<path d="M37.7868 90.2619L39.4889 89.2222L36.4232 91.7133L37.7868 90.2619ZM36.4232 91.7133C36.3658 91.6599 36.3216 91.6124 36.2922 91.5795C36.2776 91.5632 36.266 91.5497 36.2586 91.5411C36.2549 91.5367 36.2519 91.5331 36.25 91.5308C36.249 91.5297 36.2482 91.5287 36.2476 91.5281C36.2472 91.5275 36.2467 91.527 36.2467 91.5269C36.2462 91.5264 36.2474 91.5277 36.2487 91.5293C36.2502 91.5311 36.2528 91.5342 36.2561 91.5381C36.2626 91.5457 36.2734 91.5583 36.2871 91.5735C36.3147 91.6045 36.3571 91.65 36.4124 91.7015L39.1397 88.7987C39.197 88.8522 39.2413 88.8997 39.2707 88.9326C39.2853 88.9488 39.2969 88.9624 39.3043 88.971C39.308 88.9754 39.311 88.979 39.3129 88.9812C39.3139 88.9824 39.3147 88.9834 39.3152 88.984C39.3157 88.9846 39.3162 88.9851 39.3162 88.9852C39.3167 88.9857 39.3155 88.9844 39.3142 88.9827C39.3127 88.981 39.3101 88.9779 39.3068 88.974C39.3003 88.9664 39.2895 88.9538 39.2758 88.9385C39.2482 88.9076 39.2058 88.8621 39.1505 88.8105L36.4232 91.7133ZM39.1397 88.7987C39.1398 88.7988 39.1407 88.7997 39.1417 88.8006C39.1427 88.8015 39.1443 88.803 39.1463 88.8049C39.1501 88.8084 39.1561 88.8142 39.1635 88.8213C39.1777 88.8349 39.2018 88.8584 39.2306 88.8886C39.2828 88.9434 39.3867 89.0577 39.4889 89.2222L36.0848 91.3017C36.1844 91.4621 36.2849 91.5724 36.3334 91.6233C36.3802 91.6724 36.4237 91.712 36.4124 91.7015L39.1397 88.7987Z" fill="black" mask="url(#path-22-inside-10_128_2947)"/>
<mask id="path-24-inside-11_128_2947" fill="white">
<path d="M55.3511 86.2085C55.346 86.2033 55.3375 86.1949 55.3312 86.1899C55.3378 86.1961 55.3445 86.2023 55.3511 86.2085Z"/>
</mask>
<path d="M55.3511 86.2085C55.346 86.2033 55.3375 86.1949 55.3312 86.1899C55.3378 86.1961 55.3445 86.2023 55.3511 86.2085Z" fill="#5E48DB"/>
<path d="M55.3511 86.2085L56.7831 84.824L53.9874 87.6599L55.3511 86.2085ZM55.3312 86.1899L53.9675 87.6413L56.5625 84.6253L55.3312 86.1899ZM53.9191 87.5931C53.9288 87.6031 53.9446 87.619 53.9651 87.6385C53.9757 87.6486 53.9912 87.663 54.0106 87.6802C54.0286 87.6961 54.0595 87.723 54.0999 87.7546L56.5625 84.6253C56.6869 84.7228 56.7794 84.8202 56.7831 84.824L53.9191 87.5931ZM56.6948 84.7385C56.698 84.7415 56.7012 84.7445 56.7045 84.7476C56.7078 84.7507 56.7113 84.7539 56.7148 84.7571L53.9874 87.6599C53.9843 87.657 53.9811 87.654 53.9777 87.6509C53.9745 87.6478 53.971 87.6446 53.9675 87.6413L56.6948 84.7385Z" fill="black" mask="url(#path-24-inside-11_128_2947)"/>
<mask id="path-26-inside-12_128_2947" fill="white">
<path d="M37.7687 90.2382L37.7607 90.2333C37.7687 90.2383 37.7607 90.2333 37.7687 90.2382Z"/>
</mask>
<path d="M37.7687 90.2382L37.7607 90.2333C37.7687 90.2383 37.7607 90.2333 37.7687 90.2382Z" fill="#B3A15E"/>
<path d="M37.7687 90.2382L38.8179 88.5463L36.7279 91.9353L37.7687 90.2382ZM37.7607 90.2333L36.7115 91.9252L38.8015 88.5362L37.7607 90.2333ZM36.7279 91.9353L36.7198 91.9303L38.8015 88.5362L38.8096 88.5412L36.7279 91.9353ZM38.8098 88.5414C38.8103 88.5417 38.8098 88.5414 38.8089 88.5408C38.8084 88.5405 38.8075 88.54 38.8064 88.5392C38.8053 88.5386 38.8033 88.5374 38.8008 88.5359C38.7987 88.5345 38.7941 88.5317 38.7881 88.5282C38.7851 88.5263 38.7806 88.5237 38.7751 88.5204C38.77 88.5174 38.7616 88.5125 38.7511 88.5065C38.7457 88.5034 38.7387 88.4994 38.7306 88.4949C38.7226 88.4905 38.7118 88.4845 38.6989 88.4777C38.6924 88.4742 38.6847 88.4702 38.6762 88.4658C38.6677 88.4614 38.6577 88.4563 38.6464 88.4507C38.6352 88.4451 38.6217 88.4385 38.6062 88.4313C38.5909 88.4241 38.5721 88.4155 38.5504 88.4061C38.5288 88.3968 38.5016 88.3855 38.4698 88.3733C38.4537 88.3671 38.4356 88.3604 38.4157 88.3535C38.3959 88.3465 38.3734 88.339 38.3487 88.3313C38.324 88.3236 38.296 88.3154 38.2649 88.3072C38.2339 88.299 38.1985 88.2904 38.1591 88.2822C38.1199 88.274 38.0749 88.2659 38.025 88.259C37.9752 88.252 37.9183 88.2461 37.8556 88.2427C37.7927 88.2394 37.7221 88.2385 37.6451 88.2425C37.5679 88.2465 37.4837 88.2553 37.3942 88.2713C37.3043 88.2874 37.2112 88.3104 37.1163 88.342C37.08 88.3544 37.0098 88.3807 36.976 88.3945C36.9406 88.4097 36.873 88.4411 36.8408 88.4571C36.8075 88.4744 36.7449 88.5093 36.7155 88.5267C36.6854 88.5453 36.6295 88.5817 36.6038 88.5994C36.5343 88.648 36.4766 88.695 36.4307 88.7354C36.4135 88.7507 36.3838 88.7781 36.3711 88.7901C36.3584 88.8023 36.3375 88.823 36.3292 88.8314C36.3208 88.8399 36.3084 88.8527 36.3043 88.857C36.3002 88.8613 36.2961 88.8657 36.2961 88.8657C36.2961 88.8657 36.3002 88.8613 36.3043 88.857C36.3084 88.8527 36.3208 88.8399 36.3292 88.8314C36.3375 88.823 36.3584 88.8023 36.3711 88.7901C36.3838 88.7781 36.4135 88.7507 36.4307 88.7354C36.4766 88.695 36.5343 88.648 36.6038 88.5994C36.6295 88.5817 36.6854 88.5453 36.7155 88.5267C36.7449 88.5093 36.8075 88.4744 36.8408 88.4571C36.873 88.4411 36.9406 88.4097 36.976 88.3945C37.0098 88.3807 37.08 88.3544 37.1163 88.342C37.2112 88.3104 37.3043 88.2874 37.3942 88.2713C37.4837 88.2553 37.5679 88.2465 37.6451 88.2425C37.7221 88.2385 37.7927 88.2394 37.8556 88.2427C37.9183 88.2461 37.9752 88.252 38.025 88.259C38.0749 88.2659 38.1199 88.274 38.1591 88.2822C38.1985 88.2904 38.2339 88.299 38.2649 88.3072C38.296 88.3154 38.324 88.3236 38.3487 88.3313C38.3734 88.339 38.3959 88.3465 38.4157 88.3535C38.4356 88.3604 38.4537 88.3671 38.4698 88.3733C38.5016 88.3855 38.5289 88.3968 38.5504 88.4061C38.5721 88.4155 38.591 88.4241 38.6063 88.4313C38.6217 88.4385 38.6352 88.4451 38.6465 88.4507C38.6578 88.4563 38.6678 88.4614 38.6763 88.4658C38.6848 88.4702 38.6924 88.4742 38.699 88.4777C38.7118 88.4846 38.7226 88.4905 38.7306 88.495C38.7388 88.4995 38.7458 88.5034 38.7512 88.5065C38.7617 88.5126 38.7702 88.5175 38.7754 88.5206C38.7809 88.5238 38.7854 88.5265 38.7886 88.5284C38.7946 88.5321 38.7994 88.535 38.8019 88.5365C38.8046 88.5381 38.8069 88.5395 38.8084 88.5404C38.8099 88.5414 38.8113 88.5422 38.8123 88.5429C38.8144 88.5442 38.8163 88.5454 38.8179 88.5463L36.7196 91.9302C36.7191 91.9299 36.7196 91.9302 36.7205 91.9307C36.721 91.931 36.7219 91.9316 36.723 91.9323C36.7241 91.933 36.7261 91.9342 36.7286 91.9357C36.7307 91.937 36.7353 91.9398 36.7413 91.9434C36.7443 91.9452 36.7488 91.9479 36.7543 91.9511C36.7594 91.9541 36.7678 91.9591 36.7783 91.9651C36.7837 91.9682 36.7907 91.9721 36.7988 91.9766C36.8068 91.9811 36.8176 91.987 36.8305 91.9939C36.837 91.9974 36.8447 92.0014 36.8532 92.0058C36.8617 92.0101 36.8717 92.0152 36.883 92.0209C36.8942 92.0264 36.9077 92.033 36.9232 92.0402C36.9385 92.0474 36.9573 92.056 36.979 92.0654C37.0006 92.0747 37.0278 92.0861 37.0596 92.0982C37.0757 92.1044 37.0938 92.1111 37.1137 92.1181C37.1335 92.125 37.156 92.1325 37.1807 92.1402C37.2054 92.1479 37.2334 92.1561 37.2645 92.1644C37.2955 92.1726 37.3309 92.1812 37.3703 92.1894C37.4095 92.1975 37.4545 92.2057 37.5044 92.2126C37.5542 92.2195 37.6111 92.2255 37.6738 92.2288C37.7367 92.2322 37.8073 92.233 37.8843 92.229C37.9615 92.2251 38.0457 92.2163 38.1352 92.2002C38.2251 92.1841 38.3182 92.1611 38.4131 92.1296C38.4494 92.1171 38.5196 92.0908 38.5534 92.077C38.5888 92.0618 38.6564 92.0305 38.6886 92.0145C38.7219 91.9971 38.7845 91.9622 38.8139 91.9448C38.844 91.9263 38.8999 91.8899 38.9256 91.8721C38.9951 91.8235 39.0528 91.7765 39.0987 91.7361C39.1159 91.7208 39.1456 91.6935 39.1583 91.6815C39.171 91.6692 39.1919 91.6486 39.2002 91.6402C39.2086 91.6317 39.221 91.6189 39.2251 91.6145C39.2292 91.6102 39.2333 91.6059 39.2333 91.6059C39.2333 91.6059 39.2292 91.6102 39.2251 91.6145C39.221 91.6189 39.2086 91.6317 39.2002 91.6402C39.1919 91.6486 39.171 91.6692 39.1583 91.6815C39.1456 91.6935 39.1159 91.7208 39.0987 91.7361C39.0528 91.7765 38.9951 91.8235 38.9256 91.8721C38.8999 91.8899 38.844 91.9263 38.8139 91.9448C38.7845 91.9622 38.7219 91.9971 38.6886 92.0145C38.6564 92.0305 38.5888 92.0618 38.5534 92.077C38.5196 92.0908 38.4494 92.1171 38.4131 92.1296C38.3182 92.1611 38.2251 92.1841 38.1352 92.2002C38.0457 92.2163 37.9615 92.2251 37.8843 92.229C37.8073 92.233 37.7367 92.2322 37.6738 92.2288C37.6111 92.2255 37.5542 92.2195 37.5044 92.2126C37.4545 92.2057 37.4095 92.1975 37.3703 92.1894C37.3309 92.1812 37.2955 92.1726 37.2645 92.1644C37.2334 92.1561 37.2054 92.1479 37.1807 92.1402C37.156 92.1325 37.1335 92.125 37.1137 92.1181C37.0938 92.1111 37.0757 92.1044 37.0596 92.0982C37.0278 92.0861 37.0005 92.0747 36.979 92.0654C36.9573 92.056 36.9384 92.0474 36.9231 92.0402C36.9077 92.033 36.8942 92.0264 36.8829 92.0208C36.8716 92.0152 36.8616 92.0101 36.8531 92.0057C36.8446 92.0013 36.837 91.9973 36.8304 91.9938C36.8176 91.987 36.8068 91.981 36.7988 91.9766C36.7906 91.9721 36.7836 91.9681 36.7782 91.965C36.7677 91.959 36.7592 91.954 36.754 91.951C36.7485 91.9477 36.744 91.945 36.7408 91.9431C36.7348 91.9395 36.73 91.9366 36.7275 91.9351C36.7248 91.9334 36.7225 91.932 36.721 91.9311C36.7195 91.9301 36.7181 91.9293 36.7171 91.9287C36.715 91.9274 36.7131 91.9262 36.7115 91.9252L38.8098 88.5414Z" fill="black" mask="url(#path-26-inside-12_128_2947)"/>
<mask id="path-28-inside-13_128_2947" fill="white">
<path d="M55.3223 86.1832C55.3159 86.1782 55.309 86.1708 55.3027 86.1658C55.3093 86.172 55.3157 86.177 55.3223 86.1832Z"/>
</mask>
<path d="M55.3223 86.1832C55.3159 86.1782 55.309 86.1708 55.3027 86.1658C55.3093 86.172 55.3157 86.177 55.3223 86.1832Z" fill="#5E48DB"/>
<path d="M55.3223 86.1832L56.686 84.7318L54.091 87.7478L55.3223 86.1832ZM55.3027 86.1658L53.939 87.6172L56.534 84.6011L55.3027 86.1658ZM54.091 87.7478C54.0649 87.7273 54.0428 87.709 54.0256 87.6944C54.0083 87.6797 53.9939 87.6669 53.9832 87.6573C53.9725 87.6477 53.9638 87.6398 53.9585 87.6348C53.9535 87.6302 53.9491 87.6261 53.9489 87.6259C53.9474 87.6246 53.9502 87.6271 53.9535 87.6302C53.9572 87.6336 53.9642 87.6401 53.9732 87.6482C53.9823 87.6563 53.9951 87.6676 54.0108 87.6809C54.0264 87.6942 54.0468 87.7112 54.0713 87.7304L56.534 84.6011C56.5601 84.6216 56.5821 84.6399 56.5994 84.6546C56.6167 84.6693 56.6311 84.682 56.6418 84.6916C56.6525 84.7012 56.6611 84.7091 56.6665 84.7141C56.6715 84.7187 56.6759 84.7228 56.6761 84.723C56.6775 84.7244 56.6748 84.7218 56.6714 84.7187C56.6678 84.7153 56.6608 84.7089 56.6517 84.7008C56.6427 84.6926 56.6299 84.6813 56.6142 84.668C56.5986 84.6547 56.5781 84.6377 56.5536 84.6185L54.091 87.7478ZM56.6663 84.7144C56.6492 84.6984 56.6351 84.6859 56.6263 84.6782C56.622 84.6743 56.6185 84.6714 56.6167 84.6698C56.6151 84.6684 56.6139 84.6674 56.6151 84.6684C56.6155 84.6688 56.6184 84.6712 56.6216 84.674C56.625 84.677 56.6301 84.6813 56.6361 84.6866C56.6482 84.6972 56.6655 84.7127 56.686 84.7318L53.9586 87.6346C53.9757 87.6505 53.9898 87.663 53.9986 87.6708C54.003 87.6746 54.0064 87.6776 54.0082 87.6791C54.0098 87.6805 54.011 87.6816 54.0099 87.6806C54.0094 87.6802 54.0065 87.6777 54.0033 87.6749C53.9999 87.672 53.9949 87.6676 53.9888 87.6623C53.9768 87.6517 53.9594 87.6362 53.939 87.6172L56.6663 84.7144Z" fill="black" mask="url(#path-28-inside-13_128_2947)"/>
<mask id="path-30-inside-14_128_2947" fill="white">
<path d="M55.2942 86.1605C55.286 86.1525 55.2767 86.1448 55.2674 86.1372C55.2767 86.1448 55.2849 86.1528 55.2942 86.1605ZM55.2659 86.1363C55.2577 86.1283 55.2496 86.1204 55.2402 86.1127C55.2484 86.1206 55.2577 86.1283 55.2659 86.1363ZM55.2326 86.1071C55.226 86.1 55.2198 86.0953 55.2134 86.0894C55.2198 86.0953 55.2262 86.1012 55.2326 86.1071ZM55.2055 86.0826C55.1977 86.0758 55.1915 86.0711 55.1848 86.064C55.1912 86.0699 55.1977 86.0758 55.2055 86.0826ZM55.1772 86.0584C55.1595 86.0416 55.142 86.026 55.1233 86.0106C55.142 86.026 55.1595 86.0416 55.1772 86.0584ZM55.1169 86.0047C55.1105 85.9988 55.1026 85.9921 55.0962 85.9862C55.1026 85.9921 55.1105 85.9988 55.1169 86.0047ZM55.0898 85.9803C55.0819 85.9735 55.074 85.9667 55.0661 85.9599C55.074 85.9667 55.0819 85.9735 55.0898 85.9803ZM55.0626 85.9558C55.044 85.9404 55.025 85.9239 55.0072 85.9071C55.025 85.9239 55.044 85.9404 55.0626 85.9558ZM55.0023 85.9021C54.9947 85.8965 54.9853 85.8888 54.9789 85.8829C54.9868 85.8897 54.9947 85.8965 55.0023 85.9021ZM54.974 85.8779C54.9661 85.8711 54.9579 85.8632 54.9501 85.8564C54.9582 85.8644 54.9661 85.8711 54.974 85.8779ZM54.9469 85.8535C54.9279 85.8369 54.9089 85.8204 54.8912 85.8036C54.9089 85.8204 54.9279 85.8369 54.9469 85.8535ZM54.8882 85.8018C54.8801 85.7939 54.8707 85.7862 54.8626 85.7783C54.8707 85.7862 54.8801 85.7939 54.8882 85.8018ZM54.8597 85.7765C54.8323 85.7508 54.8034 85.7243 54.7751 85.7001C54.8037 85.7255 54.8323 85.7508 54.8597 85.7765ZM54.7736 85.6992C54.7655 85.6913 54.7556 85.6813 54.7463 85.6736C54.7559 85.6824 54.764 85.6904 54.7736 85.6992Z"/>
</mask>
<path d="M55.2942 86.1605C55.286 86.1525 55.2767 86.1448 55.2674 86.1372C55.2767 86.1448 55.2849 86.1528 55.2942 86.1605ZM55.2659 86.1363C55.2577 86.1283 55.2496 86.1204 55.2402 86.1127C55.2484 86.1206 55.2577 86.1283 55.2659 86.1363ZM55.2326 86.1071C55.226 86.1 55.2198 86.0953 55.2134 86.0894C55.2198 86.0953 55.2262 86.1012 55.2326 86.1071ZM55.2055 86.0826C55.1977 86.0758 55.1915 86.0711 55.1848 86.064C55.1912 86.0699 55.1977 86.0758 55.2055 86.0826ZM55.1772 86.0584C55.1595 86.0416 55.142 86.026 55.1233 86.0106C55.142 86.026 55.1595 86.0416 55.1772 86.0584ZM55.1169 86.0047C55.1105 85.9988 55.1026 85.9921 55.0962 85.9862C55.1026 85.9921 55.1105 85.9988 55.1169 86.0047ZM55.0898 85.9803C55.0819 85.9735 55.074 85.9667 55.0661 85.9599C55.074 85.9667 55.0819 85.9735 55.0898 85.9803ZM55.0626 85.9558C55.044 85.9404 55.025 85.9239 55.0072 85.9071C55.025 85.9239 55.044 85.9404 55.0626 85.9558ZM55.0023 85.9021C54.9947 85.8965 54.9853 85.8888 54.9789 85.8829C54.9868 85.8897 54.9947 85.8965 55.0023 85.9021ZM54.974 85.8779C54.9661 85.8711 54.9579 85.8632 54.9501 85.8564C54.9582 85.8644 54.9661 85.8711 54.974 85.8779ZM54.9469 85.8535C54.9279 85.8369 54.9089 85.8204 54.8912 85.8036C54.9089 85.8204 54.9279 85.8369 54.9469 85.8535ZM54.8882 85.8018C54.8801 85.7939 54.8707 85.7862 54.8626 85.7783C54.8707 85.7862 54.8801 85.7939 54.8882 85.8018ZM54.8597 85.7765C54.8323 85.7508 54.8034 85.7243 54.7751 85.7001C54.8037 85.7255 54.8323 85.7508 54.8597 85.7765ZM54.7736 85.6992C54.7655 85.6913 54.7556 85.6813 54.7463 85.6736C54.7559 85.6824 54.764 85.6904 54.7736 85.6992Z" fill="#5E48DB"/>
<path d="M55.2942 86.1605L56.6901 84.7398L54.0261 87.6956L55.2942 86.1605ZM55.2402 86.1127L53.8444 87.5334L56.5084 84.5776L55.2402 86.1127ZM55.2326 86.1071L56.6845 84.7432L53.88 87.5686L55.2326 86.1071ZM55.1848 86.064L53.7329 87.4279L56.5375 84.6025L55.1848 86.064ZM54.9789 85.8829L53.6262 87.3445L56.283 84.3781L54.9789 85.8829ZM54.9501 85.8564L53.5542 87.2771L56.2541 84.3515L54.9501 85.8564ZM54.7751 85.7001L53.4487 87.1854L56.0734 84.1903L54.7751 85.7001ZM54.7736 85.6992L56.1695 84.2785L53.421 87.1608L54.7736 85.6992ZM54.7463 85.6736L53.3936 87.1352L56.0144 84.1385L54.7463 85.6736ZM53.8984 87.5812C53.936 87.6179 53.9668 87.6447 53.9817 87.6574C53.9954 87.6692 54.0067 87.6784 53.9992 87.6723L56.5355 84.6021C56.5374 84.6037 56.558 84.6205 56.5808 84.64C56.6047 84.6605 56.6442 84.6951 56.6901 84.7398L53.8984 87.5812ZM56.5355 84.6021C56.5584 84.6209 56.577 84.637 56.5896 84.648C56.5959 84.6535 56.6012 84.6582 56.6048 84.6614C56.6083 84.6645 56.6114 84.6672 56.6121 84.6679C56.6136 84.6692 56.6127 84.6684 56.6114 84.6673C56.61 84.666 56.6069 84.6633 56.6028 84.6597C56.5947 84.6526 56.5805 84.6404 56.5623 84.6254L54.0261 87.6956C54.0032 87.6768 53.9845 87.6607 53.972 87.6497C53.9657 87.6442 53.9604 87.6395 53.9567 87.6362C53.9533 87.6332 53.9502 87.6304 53.9494 87.6297C53.948 87.6285 53.9489 87.6293 53.9501 87.6304C53.9516 87.6317 53.9547 87.6344 53.9588 87.638C53.9669 87.6451 53.981 87.6573 53.9992 87.6723L56.5355 84.6021ZM53.8701 87.557C53.8637 87.5508 53.8754 87.5623 53.8903 87.5762C53.9074 87.5921 53.9355 87.6177 53.9721 87.6478L56.5084 84.5776C56.5939 84.6479 56.6607 84.7146 56.6618 84.7156L53.8701 87.557ZM56.6361 84.692C56.617 84.6734 56.6017 84.6593 56.5937 84.652C56.5895 84.6482 56.5864 84.6453 56.5849 84.644C56.5837 84.6429 56.5827 84.6421 56.5842 84.6434C56.5849 84.644 56.588 84.6468 56.5915 84.6499C56.5951 84.6532 56.6004 84.658 56.6068 84.6637C56.619 84.6749 56.6386 84.693 56.6618 84.7156L53.8701 87.557C53.8892 87.5756 53.9045 87.5897 53.9124 87.597C53.9166 87.6008 53.9198 87.6036 53.9212 87.605C53.9225 87.6061 53.9234 87.6069 53.922 87.6056C53.9212 87.6049 53.9181 87.6022 53.9147 87.5991C53.911 87.5958 53.9057 87.591 53.8994 87.5852C53.8871 87.574 53.8676 87.556 53.8444 87.5334L56.6361 84.692ZM53.7808 87.471C53.8358 87.529 53.8822 87.5705 53.9002 87.5864C53.9043 87.59 53.9074 87.5927 53.9076 87.5929C53.9096 87.5946 53.9052 87.5908 53.9032 87.589C53.8971 87.5837 53.8808 87.5694 53.8607 87.551L56.5661 84.6278C56.5492 84.6123 56.5361 84.6008 56.5331 84.5983C56.5327 84.5979 56.5299 84.5955 56.5335 84.5986C56.5353 84.6002 56.5399 84.6042 56.5456 84.6092C56.57 84.6307 56.6228 84.6781 56.6845 84.7432L53.7808 87.471ZM56.5661 84.6278C56.5691 84.6306 56.5722 84.6334 56.5754 84.6364C56.5786 84.6393 56.582 84.6424 56.5853 84.6455L53.88 87.5686C53.8769 87.5658 53.8739 87.563 53.8706 87.5601C53.8674 87.5571 53.8641 87.5541 53.8607 87.551L56.5661 84.6278ZM53.9015 87.5875C53.9087 87.5937 53.9149 87.5989 53.9115 87.596C53.9108 87.5954 53.8985 87.585 53.8843 87.5727C53.8508 87.5436 53.7958 87.4942 53.7329 87.4279L56.6367 84.7002C56.5806 84.6409 56.532 84.5974 56.5052 84.5741C56.4944 84.5647 56.4855 84.5572 56.4884 84.5597C56.4885 84.5598 56.4984 84.5681 56.5096 84.5777L53.9015 87.5875ZM56.5375 84.6025C56.5454 84.6097 56.5295 84.595 56.5096 84.5777L53.9015 87.5875C53.8658 87.5567 53.8371 87.5301 53.8321 87.5256L56.5375 84.6025ZM53.8043 87.5011C53.8131 87.5095 53.8309 87.5258 53.8552 87.5457L56.3914 84.4755C56.453 84.5262 56.5058 84.5738 56.5502 84.6157L53.8043 87.5011ZM56.3914 84.4755C56.453 84.5262 56.5058 84.5738 56.5502 84.6157L53.8043 87.5011C53.8131 87.5095 53.8309 87.5258 53.8552 87.5457L56.3914 84.4755ZM53.7642 87.4663C53.7715 87.4731 53.777 87.478 53.779 87.4798C53.7808 87.4814 53.7821 87.4825 53.7798 87.4804C53.7785 87.4794 53.7737 87.475 53.7684 87.4703C53.7629 87.4654 53.754 87.4574 53.7435 87.4477L56.4489 84.5246C56.4415 84.5178 56.436 84.5129 56.434 84.5111C56.4322 84.5095 56.4309 84.5084 56.4333 84.5105C56.4345 84.5115 56.4394 84.5159 56.4447 84.5206C56.4501 84.5255 56.459 84.5335 56.4696 84.5432L53.7642 87.4663ZM56.4489 84.5246C56.4415 84.5178 56.436 84.5129 56.434 84.5111C56.4322 84.5095 56.4309 84.5084 56.4333 84.5105C56.4345 84.5115 56.4394 84.5159 56.4447 84.5206C56.4501 84.5255 56.459 84.5335 56.4696 84.5432L53.7642 87.4663C53.7715 87.4731 53.777 87.478 53.779 87.4798C53.7808 87.4814 53.7821 87.4825 53.7798 87.4804C53.7785 87.4794 53.7737 87.475 53.7684 87.4703C53.7629 87.4654 53.754 87.4574 53.7435 87.4477L56.4489 84.5246ZM53.7857 87.4851C53.7819 87.4818 53.7781 87.4785 53.7741 87.4751C53.7702 87.4718 53.7661 87.4683 53.7621 87.4648L56.3702 84.455C56.374 84.4583 56.3778 84.4616 56.3818 84.4651C56.3857 84.4684 56.3897 84.4719 56.3938 84.4754L53.7857 87.4851ZM56.3702 84.455C56.374 84.4583 56.3778 84.4616 56.3818 84.4651C56.3857 84.4684 56.3897 84.4719 56.3938 84.4754L53.7857 87.4851C53.7819 87.4818 53.7781 87.4785 53.7741 87.4751C53.7702 87.4718 53.7661 87.4683 53.7621 87.4648L56.3702 84.455ZM53.7945 87.4909C53.746 87.451 53.6913 87.4036 53.6343 87.3498L56.3802 84.4644C56.3587 84.4442 56.3419 84.4299 56.3308 84.4207L53.7945 87.4909ZM56.3802 84.4644C56.3587 84.4442 56.3419 84.4299 56.3308 84.4207L53.7945 87.4909C53.746 87.451 53.6913 87.4036 53.6343 87.3498L56.3802 84.4644ZM53.8156 87.5007C53.7551 87.456 53.6897 87.4029 53.6262 87.3445L56.3316 84.4214C56.3006 84.3928 56.275 84.3713 56.2583 84.3575C56.2408 84.3432 56.2176 84.3247 56.189 84.3035L53.8156 87.5007ZM56.283 84.3781C56.2893 84.3836 56.2799 84.3754 56.2681 84.3655C56.2555 84.3551 56.2273 84.3319 56.189 84.3035L53.8156 87.5007C53.7697 87.4668 53.7337 87.4373 53.7133 87.4204C53.6937 87.4041 53.6764 87.3891 53.6749 87.3878L56.283 84.3781ZM53.6699 87.3828C53.6513 87.3667 53.6362 87.3532 53.6269 87.3448C53.622 87.3404 53.618 87.3366 53.6151 87.334C53.6124 87.3316 53.61 87.3293 53.6092 87.3286C53.608 87.3275 53.6084 87.3279 53.6091 87.3285C53.6099 87.3293 53.612 87.3312 53.6149 87.3338C53.6202 87.3386 53.6313 87.3486 53.646 87.3613L56.2541 84.3515C56.2727 84.3676 56.2878 84.3811 56.2972 84.3896C56.302 84.394 56.3061 84.3977 56.3089 84.4003C56.3116 84.4027 56.314 84.405 56.3148 84.4057C56.316 84.4068 56.3156 84.4064 56.3149 84.4058C56.3141 84.405 56.312 84.4031 56.3092 84.4006C56.3038 84.3957 56.2927 84.3857 56.278 84.3731L53.6699 87.3828ZM56.3459 84.4357C56.3228 84.4132 56.3036 84.3957 56.2913 84.3848C56.2808 84.3754 56.2723 84.3681 56.278 84.3731L53.6699 87.3828C53.6665 87.3798 53.6133 87.3347 53.5542 87.2771L56.3459 84.4357ZM53.6343 87.3509C53.6213 87.3396 53.5708 87.296 53.5182 87.2463L56.2641 84.3609C56.2532 84.3506 56.2461 84.3444 56.246 84.3443C56.2458 84.3441 56.2465 84.3447 56.2489 84.3468C56.2515 84.349 56.2543 84.3515 56.2594 84.356L53.6343 87.3509ZM56.2641 84.3609C56.2532 84.3506 56.2461 84.3444 56.246 84.3443C56.2458 84.3441 56.2465 84.3447 56.2489 84.3468C56.2515 84.349 56.2543 84.3515 56.2594 84.356L53.6343 87.3509C53.6213 87.3396 53.5708 87.296 53.5182 87.2463L56.2641 84.3609ZM53.4924 87.2225C53.5113 87.241 53.5264 87.2549 53.5343 87.2621C53.5384 87.2659 53.5416 87.2687 53.543 87.27C53.5442 87.2711 53.5451 87.2719 53.5437 87.2706C53.5429 87.2699 53.5398 87.2672 53.5364 87.2641C53.5328 87.2609 53.5275 87.2561 53.5212 87.2504C53.5091 87.2393 53.4897 87.2214 53.4667 87.199L56.2584 84.3576C56.2395 84.3391 56.2244 84.3252 56.2165 84.318C56.2124 84.3142 56.2093 84.3114 56.2078 84.3101C56.2066 84.309 56.2057 84.3082 56.2071 84.3095C56.2079 84.3102 56.211 84.3129 56.2144 84.316C56.218 84.3192 56.2233 84.324 56.2296 84.3297C56.2417 84.3408 56.2611 84.3587 56.2841 84.3811L53.4924 87.2225ZM56.2584 84.3576C56.2395 84.3391 56.2244 84.3252 56.2165 84.318C56.2124 84.3142 56.2093 84.3114 56.2078 84.3101C56.2066 84.309 56.2057 84.3082 56.2071 84.3095C56.2079 84.3102 56.211 84.3129 56.2144 84.316C56.218 84.3192 56.2233 84.324 56.2296 84.3297C56.2417 84.3408 56.2611 84.3587 56.2841 84.3811L53.4924 87.2225C53.5113 87.241 53.5264 87.2549 53.5343 87.2621C53.5384 87.2659 53.5416 87.2687 53.543 87.27C53.5442 87.2711 53.5451 87.2719 53.5437 87.2706C53.5429 87.2699 53.5398 87.2672 53.5364 87.2641C53.5328 87.2609 53.5275 87.2561 53.5212 87.2504C53.5091 87.2393 53.4897 87.2214 53.4667 87.199L56.2584 84.3576ZM53.4937 87.2258C53.4843 87.2169 53.4785 87.2116 53.4748 87.2083C53.4711 87.2049 53.4721 87.2059 53.4769 87.2099L56.0734 84.1903C56.1367 84.2445 56.1919 84.2957 56.2256 84.3272L53.4937 87.2258ZM56.1015 84.2148C56.1265 84.237 56.1753 84.2802 56.2256 84.3272L53.4937 87.2258C53.4892 87.2215 53.4809 87.214 53.4487 87.1854L56.1015 84.2148ZM53.3778 87.1199C53.3736 87.1159 53.364 87.1064 53.3676 87.1099C53.3677 87.11 53.3689 87.1112 53.3706 87.1129C53.3725 87.1147 53.3753 87.1174 53.3789 87.1209C53.3857 87.1274 53.3975 87.1385 53.4128 87.1524C53.4278 87.166 53.4501 87.1856 53.4781 87.2087L56.0144 84.1385C56.0759 84.189 56.1223 84.2331 56.1419 84.2518C56.1533 84.2627 56.1626 84.2718 56.1669 84.276C56.1749 84.2838 56.1696 84.2786 56.1695 84.2785L53.3778 87.1199ZM56.0989 84.212C56.1077 84.2201 56.1152 84.2271 56.121 84.2325C56.1263 84.2375 56.1312 84.2421 56.133 84.2438C56.1356 84.2463 56.1352 84.2459 56.1344 84.2451C56.1332 84.244 56.1303 84.2413 56.1263 84.2377L53.421 87.1608C53.4122 87.1527 53.4047 87.1457 53.3989 87.1403C53.3936 87.1353 53.3887 87.1307 53.3869 87.129C53.3843 87.1265 53.3847 87.1269 53.3855 87.1277C53.3867 87.1288 53.3896 87.1315 53.3936 87.1352L56.0989 84.212Z" fill="black" mask="url(#path-30-inside-14_128_2947)"/>
<mask id="path-32-inside-15_128_2947" fill="white">
<path d="M44.3673 71.9205C44.3626 71.9114 44.3591 71.9021 44.3544 71.8931C44.3591 71.9021 44.3638 71.9112 44.3673 71.9205Z"/>
</mask>
<path d="M44.3673 71.9205C44.3626 71.9114 44.3591 71.9021 44.3544 71.8931C44.3591 71.9021 44.3638 71.9112 44.3673 71.9205Z" fill="#73BCAA"/>
<path d="M44.3673 71.9205L46.2438 71.235L42.5892 72.8265L44.3673 71.9205ZM42.5892 72.8265C42.5702 72.7899 42.5556 72.7593 42.5464 72.7395C42.5417 72.7294 42.5379 72.721 42.5354 72.7155C42.5331 72.7103 42.531 72.7057 42.5308 72.7051C42.53 72.7034 42.531 72.7057 42.5323 72.7086C42.5338 72.7118 42.5366 72.7179 42.5402 72.7257C42.5473 72.741 42.5596 72.767 42.5763 72.7991L46.1326 70.987C46.1516 71.0236 46.1662 71.0542 46.1754 71.0741C46.1801 71.0841 46.1839 71.0925 46.1864 71.0981C46.1887 71.1032 46.1908 71.1078 46.191 71.1084C46.1918 71.1101 46.1908 71.1078 46.1895 71.105C46.188 71.1017 46.1852 71.0956 46.1816 71.0879C46.1745 71.0726 46.1622 71.0465 46.1455 71.0145L42.5892 72.8265ZM46.1326 70.987C46.1326 70.9871 46.1488 71.018 46.1661 71.0538C46.1847 71.0923 46.2139 71.1554 46.2438 71.235L42.4909 72.6059C42.5173 72.6762 42.5423 72.7302 42.5565 72.7596C42.5694 72.7862 42.5809 72.8081 42.5763 72.7991L46.1326 70.987Z" fill="black" mask="url(#path-32-inside-15_128_2947)"/>
<mask id="path-34-inside-16_128_2947" fill="white">
<path d="M54.7473 85.6745C50.0801 81.4699 46.7468 76.6271 44.3663 71.9207C46.7468 76.6271 50.0801 81.4699 54.7473 85.6745Z"/>
</mask>
<path d="M54.7473 85.6745C50.0801 81.4699 46.7468 76.6271 44.3663 71.9207C46.7468 76.6271 50.0801 81.4699 54.7473 85.6745Z" fill="#5E48DB"/>
<path d="M53.4097 87.1498C48.5227 82.7472 45.048 77.6904 42.578 72.8069L46.1547 71.0345C48.4456 75.5639 51.6375 80.1927 56.085 84.1993L53.4097 87.1498ZM46.1547 71.0345C48.4456 75.5639 51.6375 80.1927 56.085 84.1993L53.4097 87.1498C48.5227 82.7472 45.048 77.6904 42.578 72.8069L46.1547 71.0345Z" fill="black" mask="url(#path-34-inside-16_128_2947)"/>
</svg>