<svg xmlns="http://www.w3.org/2000/svg" width="36" height="36" viewBox="0 0 36 36" fill="none">
<rect width="36" height="36" rx="18" fill="#E67290"/>
<path d="M22.1626 11.3335H13.8292C10.6376 11.3335 9.7459 12.1002 9.6709 15.0835C11.2792 15.0835 12.5792 16.3918 12.5792 18.0002C12.5792 19.6085 11.2792 20.9085 9.6709 20.9168C9.7459 23.9002 10.6376 24.6668 13.8292 24.6668H22.1626C25.4959 24.6668 26.3292 23.8335 26.3292 20.5002V15.5002C26.3292 12.1668 25.4959 11.3335 22.1626 11.3335Z" stroke="white" stroke-linecap="round" stroke-linejoin="round"/>
<path d="M15.4941 11.3335V14.2502" stroke="white" stroke-width="1.5" stroke-linecap="round" stroke-linejoin="round"/>
<path d="M15.4941 21.75V24.6667" stroke="white" stroke-width="1.5" stroke-linecap="round" stroke-linejoin="round"/>
<path d="M20.521 15.7748L21.0377 16.8165C21.0877 16.9165 21.1877 16.9915 21.296 17.0081L22.446 17.1748C22.7293 17.2165 22.846 17.5665 22.6377 17.7665L21.8043 18.5748C21.721 18.6498 21.6877 18.7665 21.7043 18.8831L21.9043 20.0248C21.9543 20.3081 21.6543 20.5248 21.4043 20.3915L20.3793 19.8498C20.2793 19.7998 20.1543 19.7998 20.0543 19.8498L19.0293 20.3915C18.771 20.5248 18.4793 20.3081 18.5293 20.0248L18.7293 18.8831C18.746 18.7665 18.7127 18.6581 18.6293 18.5748L17.8043 17.7665C17.596 17.5665 17.7127 17.2165 17.996 17.1748L19.146 17.0081C19.2627 16.9915 19.3543 16.9248 19.4043 16.8165L19.9127 15.7748C20.0293 15.5165 20.396 15.5165 20.521 15.7748Z" stroke="white" stroke-width="1.5" stroke-linecap="round" stroke-linejoin="round"/>
</svg>