<svg xmlns="http://www.w3.org/2000/svg" width="118" height="118" viewBox="0 0 118 118" fill="none">
<path d="M118 59C118 26.4152 91.5848 0 59 0C26.4152 0 0 26.4152 0 59C0 91.5848 26.4152 118 59 118C91.5848 118 118 91.5848 118 59Z" fill="#F8AB11" fill-opacity="0.2"/>
<path d="M32.416 46.3662C32.865 43.8344 35.0731 42 37.6443 42H79.356C81.927 42 84.135 43.8344 84.584 46.3662C88.346 67.578 89 78.185 89 78.185C89 78.185 83.297 90.649 76.188 90.82C71.845 90.924 66.077 91 58.5 91C50.9234 91 45.1555 90.924 40.8123 90.82C33.7028 90.649 28 78.185 28 78.185C28 78.185 28.654 67.578 32.416 46.3662Z" fill="#5E48DB" stroke="black" stroke-width="4"/>
<path fill-rule="evenodd" clip-rule="evenodd" d="M43.812 42.0588C43.812 33.742 50.5541 27 58.8708 27C67.188 27 73.93 33.742 73.93 42.0588V48.0823C73.93 49.7456 72.581 51.094 70.918 51.094C69.254 51.094 67.906 49.7456 67.906 48.0823V42.0588C67.906 37.0687 63.861 33.0235 58.8708 33.0235C53.8807 33.0235 49.8355 37.0687 49.8355 42.0588V48.0823C49.8355 49.7456 48.4871 51.094 46.8238 51.094C45.1604 51.094 43.812 49.7456 43.812 48.0823V42.0588Z" fill="black"/>
</svg>