<svg xmlns="http://www.w3.org/2000/svg" width="29" height="28" viewBox="0 0 29 28" fill="none">
<rect x="0.5" width="28" height="28" rx="14" fill="#5E48DB"/>
<path d="M12.6067 13.2468C12.54 13.2402 12.46 13.2402 12.3867 13.2468C10.8 13.1935 9.54004 11.8935 9.54004 10.2935C9.54004 8.66016 10.86 7.3335 12.5 7.3335C14.1334 7.3335 15.46 8.66016 15.46 10.2935C15.4534 11.8935 14.1934 13.1935 12.6067 13.2468Z" stroke="white" stroke-linecap="round" stroke-linejoin="round"/>
<path d="M17.4402 8.6665C18.7335 8.6665 19.7735 9.71317 19.7735 10.9998C19.7735 12.2598 18.7735 13.2865 17.5268 13.3332C17.4735 13.3265 17.4135 13.3265 17.3535 13.3332" stroke="white" stroke-linecap="round" stroke-linejoin="round"/>
<path d="M9.27348 15.7065C7.66014 16.7865 7.66014 18.5465 9.27348 19.6198C11.1068 20.8465 14.1135 20.8465 15.9468 19.6198C17.5601 18.5398 17.5601 16.7798 15.9468 15.7065C14.1201 14.4865 11.1135 14.4865 9.27348 15.7065Z" stroke="white" stroke-linecap="round" stroke-linejoin="round"/>
<path d="M18.7266 19.3335C19.2066 19.2335 19.6599 19.0402 20.0332 18.7535C21.0732 17.9735 21.0732 16.6868 20.0332 15.9068C19.6666 15.6268 19.2199 15.4402 18.7466 15.3335" stroke="white" stroke-linecap="round" stroke-linejoin="round"/>
</svg>