<svg xmlns="http://www.w3.org/2000/svg" width="118" height="118" viewBox="0 0 118 118" fill="none">
<path d="M118 59C118 26.4152 91.5848 0 59 0C26.4152 0 0 26.4152 0 59C0 91.5848 26.4152 118 59 118C91.5848 118 118 91.5848 118 59Z" fill="#2DC3F5" fill-opacity="0.2"/>
<path fill-rule="evenodd" clip-rule="evenodd" d="M45.543 27C44.0282 27 42.8002 28.228 42.8002 29.7428V30.2C42.8002 35.0746 44.98 39.44 48.4181 42.3747C37.6426 47.8235 30 60.915 30 71.8C30 85.939 42.8942 91 58.7999 91C74.706 91 87.6 85.939 87.6 71.8C87.6 60.915 79.957 47.8237 69.182 42.3748C72.62 39.4401 74.8 35.0746 74.8 30.2V29.7428C74.8 28.228 73.572 27 72.057 27H45.543Z" fill="#03A062" stroke="black" stroke-width="4"/>
<path d="M57.1558 73.369C58.8975 73.369 60.155 73.074 60.929 72.485C61.736 71.897 62.139 71.175 62.139 70.321C62.139 69.556 61.833 68.937 61.22 68.466C60.607 67.995 59.6877 67.583 58.4621 67.23L55.8012 66.435C54.4788 66.052 53.2854 65.64 52.2211 65.198C51.1567 64.756 50.2536 64.226 49.5118 63.608C48.77 62.99 48.1894 62.254 47.7701 61.4C47.3508 60.546 47.1412 59.5302 47.1412 58.3524C47.1412 56.3503 47.8185 54.6867 49.1732 53.3617C50.5278 52.0368 52.463 51.1535 54.9787 50.7118V49.9551C54.9787 48.3566 56.0895 46.9136 57.688 46.9136C58.8814 46.9136 59.7361 47.105 60.252 47.4877C60.8 47.8705 61.075 48.5624 61.075 49.5635V50.5351C63.139 50.7412 64.816 51.1976 66.106 51.9043C67.396 52.5815 68.041 53.4795 68.041 54.5984C68.041 54.695 68.036 54.7902 68.027 54.884C67.825 56.8432 65.159 56.7677 63.252 56.2767C62.026 55.9233 60.688 55.7467 59.2362 55.7467C57.6235 55.7467 56.414 55.9969 55.6077 56.4975C54.8336 56.9686 54.4466 57.5869 54.4466 58.3524C54.4466 58.9707 54.7046 59.4713 55.2206 59.8541C55.769 60.237 56.5914 60.59 57.688 60.914L60.397 61.665C63.3 62.489 65.526 63.579 67.074 64.933C68.654 66.287 69.444 68.113 69.444 70.41C69.444 72.441 68.735 74.164 67.316 75.577C65.896 76.961 63.816 77.888 61.075 78.359V79.072C61.075 80.67 59.9639 82.113 58.3653 82.113C57.172 82.113 56.3011 81.922 55.7528 81.539C55.2368 81.157 54.9787 80.465 54.9787 79.464V78.58C52.6243 78.345 50.7052 77.829 49.2215 77.034C47.7701 76.21 47.0444 75.179 47.0444 73.943C47.0444 73.634 47.0952 73.342 47.1883 73.068C47.8138 71.225 50.3435 71.649 52.1304 72.419C52.286 72.486 52.4452 72.553 52.6081 72.618C53.9305 73.118 55.4464 73.369 57.1558 73.369Z" fill="white"/>
</svg>