<svg xmlns="http://www.w3.org/2000/svg" width="118" height="118" viewBox="0 0 118 118" fill="none">
<path d="M118 59C118 26.4152 91.5848 0 59 0C26.4152 0 0 26.4152 0 59C0 91.5848 26.4152 118 59 118C91.5848 118 118 91.5848 118 59Z" fill="#03A062" fill-opacity="0.2"/>
<path d="M36.0333 47.3879C35.583 44.7073 37.0488 42.4023 39.6167 41.5113C42.3433 40.5652 46.8017 39.1702 53.9549 37.2535C61.108 35.3368 65.6669 34.3157 68.5009 33.7718C71.1699 33.2595 73.5919 34.5227 74.5429 37.0693C75.2739 39.03 76.211 41.8922 77.313 46.0041C78.414 50.116 79.0339 53.0629 79.3809 55.1267C79.8309 57.8073 78.3659 60.1119 75.7979 61.0029C73.0709 61.9499 68.6129 63.3449 61.4599 65.2609C54.3063 67.1779 49.7477 68.1989 46.9133 68.7429C44.2439 69.2549 41.8221 67.9919 40.8718 65.4449C40.1401 63.4849 39.2036 60.6229 38.1018 56.5105C37 52.3986 36.38 49.4517 36.0333 47.3879Z" fill="black"/>
<path d="M30.7323 45.3402C31.0374 42.6193 33.0168 40.6722 35.7404 40.3919C39.4454 40.0107 46.0756 39.6074 57.5458 39.6074C69.016 39.6074 75.646 40.0107 79.351 40.3919C82.075 40.6722 84.054 42.6193 84.359 45.3402C84.724 48.5947 85.092 54.046 85.092 62.804C85.092 71.562 84.724 77.013 84.359 80.268C84.054 82.988 82.075 84.936 79.351 85.216C75.646 85.597 69.016 86 57.5458 86C46.0756 86 39.4454 85.597 35.7404 85.216C33.0168 84.936 31.0374 82.988 30.7323 80.268C30.3674 77.013 30 71.562 30 62.804C30 54.046 30.3674 48.5947 30.7323 45.3402Z" fill="#9F62DD" stroke="black" stroke-width="4"/>
<path d="M67.769 58.9645C67.889 56.2294 69.813 54.3317 72.548 54.208C73.887 54.1474 75.618 54.1055 77.843 54.1055C80.068 54.1055 81.799 54.1474 83.138 54.208C85.873 54.3317 87.797 56.2294 87.916 58.9645C87.962 60.001 87.991 61.267 87.991 62.804C87.991 64.342 87.962 65.607 87.916 66.644C87.797 69.379 85.873 71.277 83.138 71.4C81.799 71.461 80.068 71.503 77.843 71.503C75.618 71.503 73.887 71.461 72.548 71.4C69.813 71.277 67.889 69.379 67.769 66.644C67.724 65.607 67.694 64.342 67.694 62.804C67.694 61.267 67.724 60.001 67.769 58.9645Z" fill="black"/>
<path d="M79.292 62.803C79.292 64.404 77.994 65.702 76.393 65.702C74.791 65.702 73.493 64.404 73.493 62.803C73.493 61.201 74.791 59.9033 76.393 59.9033C77.994 59.9033 79.292 61.201 79.292 62.803Z" fill="#9F62DD"/>
</svg>